<?xml version="1.0" encoding="UTF-8" standalone="no"?>
<!-- Generator: Adobe Illustrator 19.0.0, SVG Export Plug-In . SVG Version: 6.00 Build 0)  -->

<svg
   xmlns:dc="http://purl.org/dc/elements/1.1/"
   xmlns:cc="http://creativecommons.org/ns#"
   xmlns:rdf="http://www.w3.org/1999/02/22-rdf-syntax-ns#"
   xmlns:svg="http://www.w3.org/2000/svg"
   xmlns="http://www.w3.org/2000/svg"
   xmlns:xlink="http://www.w3.org/1999/xlink"
   xmlns:sodipodi="http://sodipodi.sourceforge.net/DTD/sodipodi-0.dtd"
   xmlns:inkscape="http://www.inkscape.org/namespaces/inkscape"
   version="1.1"
   id="Layer_1"
   x="0px"
   y="0px"
   viewBox="0 0 503.322 503.322"
   style="enable-background:new 0 0 503.322 503.322;"
   xml:space="preserve"
   sodipodi:docname="filecopy.svg"
   inkscape:version="0.92.4 (5da689c313, 2019-01-14)"><metadata
   id="metadata61"><rdf:RDF><cc:Work
       rdf:about=""><dc:format>image/svg+xml</dc:format><dc:type
         rdf:resource="http://purl.org/dc/dcmitype/StillImage" /></cc:Work></rdf:RDF></metadata><defs
   id="defs59"><linearGradient
     inkscape:collect="always"
     id="linearGradient842"><stop
       style="stop-color:#000000;stop-opacity:1;"
       offset="0"
       id="stop838" /><stop
       style="stop-color:#000000;stop-opacity:0;"
       offset="1"
       id="stop840" /></linearGradient><linearGradient
     inkscape:collect="always"
     xlink:href="#linearGradient842"
     id="linearGradient844"
     x1="303.229"
     y1="86.786802"
     x2="495.144"
     y2="86.786802"
     gradientUnits="userSpaceOnUse" /></defs><sodipodi:namedview
   pagecolor="#ffffff"
   bordercolor="#666666"
   borderopacity="1"
   objecttolerance="10"
   gridtolerance="10"
   guidetolerance="10"
   inkscape:pageopacity="0"
   inkscape:pageshadow="2"
   inkscape:window-width="1024"
   inkscape:window-height="710"
   id="namedview57"
   showgrid="false"
   inkscape:zoom="0.46888474"
   inkscape:cx="251.661"
   inkscape:cy="251.661"
   inkscape:window-x="0"
   inkscape:window-y="0"
   inkscape:window-maximized="1"
   inkscape:current-layer="Layer_1" />
<path
   style="fill:#D4D0BA;"
   d="M190.915,52.068h-43.39c-5.207,0-8.678-3.471-8.678-8.678V0L190.915,52.068z"
   id="path2" />
<path
   style="fill:#EFEADD;stroke:#000000;stroke-opacity:1;stroke-width:9;stroke-miterlimit:4;stroke-dasharray:none"
   d="M190.915,52.068h-43.39c-5.207,0-8.678-3.471-8.678-8.678V0H17.356c-5.207,0-8.678,4.339-8.678,8.678  v234.305c0,5.207,3.471,8.678,8.678,8.678h164.881c5.207,0,8.678-3.471,8.678-8.678V52.068z"
   id="path4" />
<path
   style="fill:#D4D0BA;"
   d="M494.644,303.729h-43.39c-5.207,0-8.678-3.471-8.678-8.678v-43.39L494.644,303.729z"
   id="path6" />
<path
   style="fill:#EFEADD;stroke-width:9;stroke-miterlimit:4;stroke-dasharray:none;stroke:#000000;stroke-opacity:1"
   d="M494.644,303.729h-43.39c-5.207,0-8.678-3.471-8.678-8.678v-43.39H321.085  c-5.207,0-8.678,3.471-8.678,8.678v234.305c0,5.207,3.471,8.678,8.678,8.678h164.881c5.207,0,8.678-3.471,8.678-8.678V303.729z"
   id="path8" />
<g
   id="g16"
   style="fill:#990000;stroke-width:0.71813709"
   transform="matrix(1.2010788,0,0,1.6144096,-1.7449621,-298.58219)">
	<path
   style="fill:#990000;stroke-width:0.71813709"
   d="M 190.915,451.254 H 17.356 c -5.207,0 -8.678,-3.471 -8.678,-8.678 0,-5.207 3.471,-8.678 8.678,-8.678 h 173.559 c 5.207,0 8.678,3.471 8.678,8.678 0,5.207 -3.471,8.678 -8.678,8.678"
   id="path10"
   inkscape:connector-curvature="0" />
	<path
   style="fill:#990000;stroke-width:0.71813709"
   d="m 190.915,451.254 c -2.603,0 -4.339,-0.868 -6.075,-2.603 l -34.712,-34.712 c -3.471,-3.471 -3.471,-8.678 0,-12.149 3.471,-3.471 8.678,-3.471 12.149,0 l 34.712,34.712 c 3.471,3.471 3.471,8.678 0,12.149 -1.735,1.735 -3.47,2.603 -6.074,2.603"
   id="path12"
   inkscape:connector-curvature="0" />
	<path
   style="fill:#990000;stroke-width:0.71813709"
   d="m 156.203,485.966 c -2.603,0 -4.339,-0.868 -6.075,-2.603 -3.471,-3.471 -3.471,-8.678 0,-12.149 l 34.712,-34.712 c 3.471,-3.471 8.678,-3.471 12.149,0 3.471,3.471 3.471,8.678 0,12.149 l -34.712,34.712 c -1.735,1.735 -3.47,2.603 -6.074,2.603"
   id="path14"
   inkscape:connector-curvature="0" />
</g>
<g
   id="g24"
   style="fill:#009900;stroke:none;stroke-width:0.71273112;stroke-miterlimit:4;stroke-dasharray:none;stroke-opacity:1"
   transform="matrix(1.2010786,0,0,1.6389934,-99.462308,-42.655445)">
	<path
   style="fill:#009900;stroke:none;stroke-width:0.71273112;stroke-miterlimit:4;stroke-dasharray:none;stroke-opacity:1"
   d="M 485.966,95.458 H 312.407 c -5.207,0 -8.678,-3.471 -8.678,-8.678 0,-5.207 3.471,-8.678 8.678,-8.678 h 173.559 c 5.207,0 8.678,3.471 8.678,8.678 0,5.206 -3.471,8.678 -8.678,8.678"
   id="path18"
   inkscape:connector-curvature="0" />
	<path
   style="fill:#009900;stroke:none;stroke-width:0.71273112;stroke-miterlimit:4;stroke-dasharray:none;stroke-opacity:1"
   d="m 347.119,130.169 c -2.603,0 -4.339,-0.868 -6.075,-2.603 L 306.332,92.854 c -3.471,-3.471 -3.471,-8.678 0,-12.149 3.471,-3.471 8.678,-3.471 12.149,0 l 34.712,34.712 c 3.471,3.471 3.471,8.678 0,12.149 -1.735,1.736 -3.471,2.603 -6.074,2.603"
   id="path20"
   inkscape:connector-curvature="0" />
	<path
   style="fill:#009900;stroke:none;stroke-width:0.71273112;stroke-miterlimit:4;stroke-dasharray:none;stroke-opacity:1"
   d="m 312.407,95.458 c -2.603,0 -4.339,-0.868 -6.075,-2.603 -3.471,-3.471 -3.471,-8.678 0,-12.149 l 34.712,-34.712 c 3.471,-3.471 8.678,-3.471 12.149,0 3.471,3.471 3.471,8.678 0,12.149 l -34.712,34.712 c -1.735,1.735 -3.471,2.603 -6.074,2.603"
   id="path22"
   inkscape:connector-curvature="0" />
</g>
<g
   id="g26">
</g>
<g
   id="g28">
</g>
<g
   id="g30">
</g>
<g
   id="g32">
</g>
<g
   id="g34">
</g>
<g
   id="g36">
</g>
<g
   id="g38">
</g>
<g
   id="g40">
</g>
<g
   id="g42">
</g>
<g
   id="g44">
</g>
<g
   id="g46">
</g>
<g
   id="g48">
</g>
<g
   id="g50">
</g>
<g
   id="g52">
</g>
<g
   id="g54">
</g>
</svg>