<?xml version="1.0" encoding="UTF-8" standalone="no"?>
<svg
   xmlns:dc="http://purl.org/dc/elements/1.1/"
   xmlns:cc="http://creativecommons.org/ns#"
   xmlns:rdf="http://www.w3.org/1999/02/22-rdf-syntax-ns#"
   xmlns:svg="http://www.w3.org/2000/svg"
   xmlns="http://www.w3.org/2000/svg"
   xmlns:sodipodi="http://sodipodi.sourceforge.net/DTD/sodipodi-0.dtd"
   xmlns:inkscape="http://www.inkscape.org/namespaces/inkscape"
   width="128"
   height="128"
   version="1.1"
   id="svg10"
   sodipodi:docname="gnome-fs-ftp-svgrepo-com.svg"
   inkscape:version="0.92.4 (5da689c313, 2019-01-14)">
  <defs
     id="defs14" />
  <sodipodi:namedview
     pagecolor="#ffffff"
     bordercolor="#666666"
     borderopacity="1"
     objecttolerance="10"
     gridtolerance="10"
     guidetolerance="10"
     inkscape:pageopacity="0"
     inkscape:pageshadow="2"
     inkscape:window-width="1024"
     inkscape:window-height="710"
     id="namedview12"
     showgrid="false"
     inkscape:zoom="1.84375"
     inkscape:cx="64"
     inkscape:cy="64"
     inkscape:window-x="0"
     inkscape:window-y="0"
     inkscape:window-maximized="1"
     inkscape:current-layer="svg10" />
  <title
     id="title2">Clarity Icon</title>
  <desc
     id="desc4">This is shape (source) for Clarity vector icon theme for gtk</desc>
  <metadata
     id="metadata6">
    <rdf:RDF>
      <cc:Work
         rdf:about="">
        <dc:title>Clarity Icon</dc:title>
        <dc:description>This is shape (source) for Clarity vector icon theme for gtk</dc:description>
        <dc:creator>
          <cc:Agent>
            <dc:title>Jakub Jankiewicz</dc:title>
          </cc:Agent>
        </dc:creator>
        <dc:rights>
          <cc:Agent>
            <dc:title>Jakub Jankiewicz</dc:title>
          </cc:Agent>
        </dc:rights>
        <dc:date>2010</dc:date>
        <dc:format>image/svg+xml</dc:format>
        <dc:type
           rdf:resource="http://purl.org/dc/dcmitype/StillImage" />
        <cc:license
           rdf:resource="http://creativecommons.org/licenses/by-sa/3.0/" />
      </cc:Work>
    </rdf:RDF>
  </metadata>
  <path
     d="m 8.9980573,1.1149367 c -4.5868354,0 -8.29890486,4.4177573 -8.29890486,9.8765793 V 28.494318 43.455045 97.50536 c 0,5.45881 3.71206946,9.8349 8.29890486,9.8349 H 57.180732 v 6.20933 h -6.653131 c -1.61189,0 -2.906367,1.54058 -2.906367,3.45887 v 6.41772 c 0,1.91831 1.294477,3.45888 2.906367,3.45888 h 26.402425 c 1.611889,0 2.906367,-1.54057 2.906367,-3.45888 v -6.41772 c 0,-1.91829 -1.294478,-3.45887 -2.906367,-3.45887 h -6.653131 v -6.20933 h 48.182675 c 4.58683,0 8.2989,-4.37609 8.2989,-9.8349 V 28.494318 c 0,-5.458822 -3.71216,-9.801369 -8.2989,-9.834907 H 51.858227 v -7.667895 c 0,-5.458822 -3.677053,-9.8765793 -8.263889,-9.8765793 z M 0.69915244,115.88329 v 8.66806 H 45.06503 c -0.0013,-0.0582 0,-0.10817 0,-0.16668 v -7.25116 c 0,-0.42639 0.04241,-0.84603 0.105046,-1.25022 z m 81.58839456,0 c 0.06263,0.40419 0.105045,0.82383 0.105045,1.25022 v 7.25116 c 0,0.0585 0.0013,0.1086 0,0.16668 h 44.365878 v -8.66806 z"
     id="path8"
     style="fill:#0099ff;stroke-width:0.99999994"
     inkscape:connector-curvature="0"
     sodipodi:nodetypes="ssccssccssssssssccsssccssscccsscccsscccc" />
  <text
     xml:space="preserve"
     style="font-style:normal;font-weight:normal;font-size:61.28347778px;line-height:1.25;font-family:sans-serif;letter-spacing:0px;word-spacing:0px;fill:#ffffff;fill-opacity:1;stroke:none;stroke-width:1"
     x="5.2854657"
     y="85.10733"
     id="text18"
     transform="scale(0.91764118,1.0897506)"><tspan
       sodipodi:role="line"
       id="tspan16"
       x="5.2854657"
       y="85.10733"
       style="font-style:normal;font-variant:normal;font-weight:bold;font-stretch:normal;font-family:sans-serif;-inkscape-font-specification:'sans-serif Bold';fill:#ffffff;fill-opacity:1;stroke-width:1">FTP</tspan></text>
</svg>
