<?xml version="1.0" encoding="iso-8859-1"?>
<!-- Generator: Adobe Illustrator 19.0.0, SVG Export Plug-In . SVG Version: 6.00 Build 0)  -->
<svg version="1.1" id="Layer_1" xmlns="http://www.w3.org/2000/svg" xmlns:xlink="http://www.w3.org/1999/xlink" x="0px" y="0px"
	 viewBox="0 0 512 512" style="enable-background:new 0 0 512 512;" xml:space="preserve">
<rect x="233.939" y="385.814" style="fill:#547475;" width="40.067" height="109.49"/>
<rect x="233.939" y="385.814" style="opacity:0.15;fill:#231F20;enable-background:new    ;" width="20.035" height="109.49"/>
<path style="fill:#688787;" d="M337.768,478.609h-25.117h-33.503H254.03h-0.111h-25.117h-33.503h-16.62v10.67
	c0,9.86-6.291,18.231-15.072,21.374c2.018,0.865,4.24,1.348,6.574,1.348h29.569h29.05h25.117h0.111h25.117h33.503h25.117
	c9.222,0,16.696-7.474,16.696-16.696C354.463,486.085,346.989,478.609,337.768,478.609z"/>
<path style="opacity:0.15;fill:#231F20;enable-background:new    ;" d="M198.715,492.123v-13.515H195.3h-16.62v10.67
	c0,9.86-6.291,18.231-15.072,21.374c2.018,0.865,4.24,1.348,6.574,1.348h22.212C196.305,506.84,198.715,499.846,198.715,492.123z"/>
<path style="fill:#688787;" d="M417.11,28.041H178.68v37.574v305.026v37.576h319.761c7.378,0,13.357-5.98,13.357-13.357v-37.576
	V78.972V41.397c0-7.378-5.978-13.357-13.357-13.357h-54.617"/>
<rect x="178.677" y="65.859" style="fill:#53CAF9;" width="295.402" height="306.566"/>
<g>
	<path style="fill:#B0E9F7;" d="M211.531,225.261c-2.136,0-4.273-0.815-5.904-2.445c-3.26-3.261-3.26-8.546,0-11.806l58.148-58.145
		c3.261-3.259,8.547-3.259,11.806,0c3.26,3.261,3.26,8.546,0,11.806l-58.149,58.145
		C215.804,224.445,213.667,225.261,211.531,225.261z"/>
	<path style="fill:#B0E9F7;" d="M269.678,284.141c-2.136,0-4.273-0.815-5.904-2.443c-3.26-3.261-3.26-8.546,0-11.807l55.073-55.073
		c3.261-3.259,8.546-3.259,11.806,0c3.26,3.261,3.26,8.546,0,11.806l-55.073,55.073
		C273.951,283.326,271.814,284.141,269.678,284.141z"/>
	<path style="fill:#B0E9F7;" d="M235.142,259.1c-2.136,0-4.273-0.815-5.904-2.445c-3.26-3.261-3.26-8.546,0-11.807l91.985-91.984
		c3.261-3.259,8.546-3.259,11.806,0c3.26,3.261,3.26,8.546,0,11.806l-91.985,91.985C239.415,258.285,237.277,259.1,235.142,259.1z"
		/>
	<path style="fill:#B0E9F7;" d="M211.887,282.355c-2.136,0-4.273-0.815-5.904-2.445c-3.26-3.261-3.26-8.546,0-11.806l5.743-5.743
		c3.261-3.259,8.546-3.259,11.806,0c3.26,3.261,3.26,8.546,0,11.806l-5.743,5.743C216.16,281.539,214.023,282.355,211.887,282.355z"
		/>
</g>
<g style="opacity:0.15;">
	<rect x="162.081" y="28.038" style="fill:#231F20;" width="36.632" height="380.182"/>
</g>
<path style="fill:#DBDDDD;" d="M180.906,489.278c0,12.547-10.172,22.722-22.724,22.722H22.924
	c-12.547,0-22.722-10.174-22.722-22.722V22.724C0.203,10.174,10.376,0,22.924,0h135.258c12.552,0,22.724,10.174,22.724,22.724
	V489.278z"/>
<path style="opacity:0.15;fill:#231F20;enable-background:new    ;" d="M18.383,489.278V22.724C18.383,10.174,28.556,0,41.105,0
	h-18.18C10.376,0,0.203,10.174,0.203,22.724v466.554C0.203,501.826,10.376,512,22.924,512h18.18
	C28.556,512,18.383,501.826,18.383,489.278z"/>
<circle style="fill:#F74848;" cx="131.061" cy="46.826" r="18.787"/>
<path style="fill:#53CAF9;" d="M123.621,319.696h-19.214v-19.218c0-3.074-2.492-5.565-5.565-5.565H82.265
	c-3.073,0-5.565,2.491-5.565,5.565v19.218H57.484c-3.073,0-5.565,2.491-5.565,5.565v16.577c0,3.074,2.492,5.565,5.565,5.565H76.7
	v19.216c0,3.074,2.492,5.565,5.565,5.565H98.84c3.073,0,5.565-2.491,5.565-5.565v-19.216h19.216c3.073,0,5.565-2.491,5.565-5.565
	v-16.577C129.187,322.187,126.694,319.696,123.621,319.696z"/>
<path style="fill:#547475;" d="M46.852,55.176H30.526c-4.61,0-8.348-3.736-8.348-8.348s3.738-8.348,8.348-8.348h16.326
	c4.61,0,8.348,3.736,8.348,8.348S51.462,55.176,46.852,55.176z"/>
<g>
	<path style="fill:#F5F5F5;" d="M52.789,107.278H36.463c-4.61,0-8.348-3.736-8.348-8.348s3.738-8.348,8.348-8.348h16.326
		c4.61,0,8.348,3.736,8.348,8.348S57.399,107.278,52.789,107.278z"/>
	<path style="fill:#F5F5F5;" d="M98.717,107.278H82.391c-4.61,0-8.348-3.736-8.348-8.348s3.738-8.348,8.348-8.348h16.326
		c4.61,0,8.348,3.736,8.348,8.348S103.327,107.278,98.717,107.278z"/>
	<path style="fill:#F5F5F5;" d="M144.643,107.278h-16.326c-4.611,0-8.348-3.736-8.348-8.348s3.736-8.348,8.348-8.348h16.326
		c4.61,0,8.348,3.736,8.348,8.348S149.254,107.278,144.643,107.278z"/>
	<path style="fill:#F5F5F5;" d="M52.789,146.605H36.463c-4.61,0-8.348-3.736-8.348-8.348c0-4.611,3.738-8.348,8.348-8.348h16.326
		c4.61,0,8.348,3.736,8.348,8.348C61.137,142.867,57.399,146.605,52.789,146.605z"/>
	<path style="fill:#F5F5F5;" d="M98.717,146.605H82.391c-4.61,0-8.348-3.736-8.348-8.348c0-4.611,3.738-8.348,8.348-8.348h16.326
		c4.61,0,8.348,3.736,8.348,8.348C107.065,142.867,103.327,146.605,98.717,146.605z"/>
	<path style="fill:#F5F5F5;" d="M144.643,146.605h-16.326c-4.611,0-8.348-3.736-8.348-8.348c0-4.611,3.736-8.348,8.348-8.348h16.326
		c4.61,0,8.348,3.736,8.348,8.348C152.991,142.867,149.254,146.605,144.643,146.605z"/>
	<path style="fill:#F5F5F5;" d="M52.789,416.565H36.463c-4.61,0-8.348-3.736-8.348-8.348c0-4.611,3.738-8.348,8.348-8.348h16.326
		c4.61,0,8.348,3.736,8.348,8.348C61.137,412.828,57.399,416.565,52.789,416.565z"/>
	<path style="fill:#F5F5F5;" d="M98.717,416.565H82.391c-4.61,0-8.348-3.736-8.348-8.348c0-4.611,3.738-8.348,8.348-8.348h16.326
		c4.61,0,8.348,3.736,8.348,8.348C107.065,412.828,103.327,416.565,98.717,416.565z"/>
	<path style="fill:#F5F5F5;" d="M144.643,416.565h-16.326c-4.611,0-8.348-3.736-8.348-8.348c0-4.611,3.736-8.348,8.348-8.348h16.326
		c4.61,0,8.348,3.736,8.348,8.348C152.991,412.828,149.254,416.565,144.643,416.565z"/>
	<path style="fill:#F5F5F5;" d="M52.789,455.891H36.463c-4.61,0-8.348-3.736-8.348-8.348c0-4.611,3.738-8.348,8.348-8.348h16.326
		c4.61,0,8.348,3.736,8.348,8.348C61.137,452.154,57.399,455.891,52.789,455.891z"/>
	<path style="fill:#F5F5F5;" d="M98.717,455.891H82.391c-4.61,0-8.348-3.736-8.348-8.348c0-4.611,3.738-8.348,8.348-8.348h16.326
		c4.61,0,8.348,3.736,8.348,8.348C107.065,452.154,103.327,455.891,98.717,455.891z"/>
	<path style="fill:#F5F5F5;" d="M144.643,455.891h-16.326c-4.611,0-8.348-3.736-8.348-8.348c0-4.611,3.736-8.348,8.348-8.348h16.326
		c4.61,0,8.348,3.736,8.348,8.348C152.991,452.154,149.254,455.891,144.643,455.891z"/>
	<path style="fill:#F5F5F5;" d="M52.789,185.933H36.463c-4.61,0-8.348-3.736-8.348-8.348s3.738-8.348,8.348-8.348h16.326
		c4.61,0,8.348,3.736,8.348,8.348C61.137,182.195,57.399,185.933,52.789,185.933z"/>
	<path style="fill:#F5F5F5;" d="M98.717,185.933H82.391c-4.61,0-8.348-3.736-8.348-8.348s3.738-8.348,8.348-8.348h16.326
		c4.61,0,8.348,3.736,8.348,8.348C107.065,182.195,103.327,185.933,98.717,185.933z"/>
	<path style="fill:#F5F5F5;" d="M144.643,185.933h-16.326c-4.611,0-8.348-3.736-8.348-8.348s3.736-8.348,8.348-8.348h16.326
		c4.61,0,8.348,3.736,8.348,8.348C152.991,182.195,149.254,185.933,144.643,185.933z"/>
	<path style="fill:#F5F5F5;" d="M52.789,225.261H36.463c-4.61,0-8.348-3.736-8.348-8.348s3.738-8.348,8.348-8.348h16.326
		c4.61,0,8.348,3.736,8.348,8.348C61.137,221.523,57.399,225.261,52.789,225.261z"/>
	<path style="fill:#F5F5F5;" d="M98.717,225.261H82.391c-4.61,0-8.348-3.736-8.348-8.348s3.738-8.348,8.348-8.348h16.326
		c4.61,0,8.348,3.736,8.348,8.348C107.065,221.523,103.327,225.261,98.717,225.261z"/>
	<path style="fill:#F5F5F5;" d="M144.643,225.261h-16.326c-4.611,0-8.348-3.736-8.348-8.348s3.736-8.348,8.348-8.348h16.326
		c4.61,0,8.348,3.736,8.348,8.348C152.991,221.523,149.254,225.261,144.643,225.261z"/>
	<path style="fill:#F5F5F5;" d="M75.755,264.348H59.429c-4.61,0-8.348-3.736-8.348-8.348s3.738-8.348,8.348-8.348h16.326
		c4.61,0,8.348,3.736,8.348,8.348C84.103,260.611,80.364,264.348,75.755,264.348z"/>
	<path style="fill:#F5F5F5;" d="M121.68,264.348h-16.326c-4.61,0-8.348-3.736-8.348-8.348s3.738-8.348,8.348-8.348h16.326
		c4.61,0,8.348,3.736,8.348,8.348S126.29,264.348,121.68,264.348z"/>
</g>
<path style="fill:#EDEDED;" d="M123.124,481.261H57.983c-7.377,0-13.357,5.98-13.357,13.357V512h91.854v-17.382
	C136.48,487.241,130.501,481.261,123.124,481.261z"/>
<g>
	<path style="opacity:0.1;fill:#231F20;enable-background:new    ;" d="M132.313,46.828c0-6.689,3.505-12.545,8.77-15.874
		c-2.901-1.834-6.331-2.913-10.017-2.913c-10.376,0-18.787,8.411-18.787,18.787s8.411,18.787,18.787,18.787
		c3.688,0,7.117-1.079,10.017-2.913C135.818,59.374,132.313,53.517,132.313,46.828z"/>
	<path style="opacity:0.05;fill:#231F20;enable-background:new    ;" d="M78.018,481.261H57.983c-7.377,0-13.357,5.98-13.357,13.357
		V512h20.035v-17.382C64.661,487.241,70.64,481.261,78.018,481.261z"/>
</g>
<g>
</g>
<g>
</g>
<g>
</g>
<g>
</g>
<g>
</g>
<g>
</g>
<g>
</g>
<g>
</g>
<g>
</g>
<g>
</g>
<g>
</g>
<g>
</g>
<g>
</g>
<g>
</g>
<g>
</g>
</svg>
