<?xml version="1.0" encoding="UTF-8"?>
<!DOCTYPE svg PUBLIC "-//W3C//DTD SVG 1.1//EN" "http://www.w3.org/Graphics/SVG/1.1/DTD/svg11.dtd">
<svg version="1.2" width="133.21mm" height="133.21mm" viewBox="0 0 13321 13321" preserveAspectRatio="xMidYMid" fill-rule="evenodd" stroke-width="28.222" stroke-linejoin="round" xmlns="http://www.w3.org/2000/svg" xmlns:ooo="http://xml.openoffice.org/svg/export" xmlns:xlink="http://www.w3.org/1999/xlink" xmlns:presentation="http://sun.com/xmlns/staroffice/presentation" xmlns:smil="http://www.w3.org/2001/SMIL20/" xmlns:anim="urn:oasis:names:tc:opendocument:xmlns:animation:1.0" xml:space="preserve">
 <defs class="ClipPathGroup">
  <clipPath id="presentation_clip_path" clipPathUnits="userSpaceOnUse">
   <rect x="0" y="0" width="13321" height="13321"/>
  </clipPath>
  <clipPath id="presentation_clip_path_shrink" clipPathUnits="userSpaceOnUse">
   <rect x="13" y="13" width="13295" height="13295"/>
  </clipPath>
 </defs>
 <defs class="TextShapeIndex">
  <g ooo:slide="id1" ooo:id-list="id3 id4"/>
 </defs>
 <defs class="EmbeddedBulletChars">
  <g id="bullet-char-template-57356" transform="scale(0.00048828125,-0.00048828125)">
   <path d="M 580,1141 L 1163,571 580,0 -4,571 580,1141 Z"/>
  </g>
  <g id="bullet-char-template-57354" transform="scale(0.00048828125,-0.00048828125)">
   <path d="M 8,1128 L 1137,1128 1137,0 8,0 8,1128 Z"/>
  </g>
  <g id="bullet-char-template-10146" transform="scale(0.00048828125,-0.00048828125)">
   <path d="M 174,0 L 602,739 174,1481 1456,739 174,0 Z M 1358,739 L 309,1346 659,739 1358,739 Z"/>
  </g>
  <g id="bullet-char-template-10132" transform="scale(0.00048828125,-0.00048828125)">
   <path d="M 2015,739 L 1276,0 717,0 1260,543 174,543 174,936 1260,936 717,1481 1274,1481 2015,739 Z"/>
  </g>
  <g id="bullet-char-template-10007" transform="scale(0.00048828125,-0.00048828125)">
   <path d="M 0,-2 C -7,14 -16,27 -25,37 L 356,567 C 262,823 215,952 215,954 215,979 228,992 255,992 264,992 276,990 289,987 310,991 331,999 354,1012 L 381,999 492,748 772,1049 836,1024 860,1049 C 881,1039 901,1025 922,1006 886,937 835,863 770,784 769,783 710,716 594,584 L 774,223 C 774,196 753,168 711,139 L 727,119 C 717,90 699,76 672,76 641,76 570,178 457,381 L 164,-76 C 142,-110 111,-127 72,-127 30,-127 9,-110 8,-76 1,-67 -2,-52 -2,-32 -2,-23 -1,-13 0,-2 Z"/>
  </g>
  <g id="bullet-char-template-10004" transform="scale(0.00048828125,-0.00048828125)">
   <path d="M 285,-33 C 182,-33 111,30 74,156 52,228 41,333 41,471 41,549 55,616 82,672 116,743 169,778 240,778 293,778 328,747 346,684 L 369,508 C 377,444 397,411 428,410 L 1163,1116 C 1174,1127 1196,1133 1229,1133 1271,1133 1292,1118 1292,1087 L 1292,965 C 1292,929 1282,901 1262,881 L 442,47 C 390,-6 338,-33 285,-33 Z"/>
  </g>
  <g id="bullet-char-template-9679" transform="scale(0.00048828125,-0.00048828125)">
   <path d="M 813,0 C 632,0 489,54 383,161 276,268 223,411 223,592 223,773 276,916 383,1023 489,1130 632,1184 813,1184 992,1184 1136,1130 1245,1023 1353,916 1407,772 1407,592 1407,412 1353,268 1245,161 1136,54 992,0 813,0 Z"/>
  </g>
  <g id="bullet-char-template-8226" transform="scale(0.00048828125,-0.00048828125)">
   <path d="M 346,457 C 273,457 209,483 155,535 101,586 74,649 74,723 74,796 101,859 155,911 209,963 273,989 346,989 419,989 480,963 531,910 582,859 608,796 608,723 608,648 583,586 532,535 482,483 420,457 346,457 Z"/>
  </g>
  <g id="bullet-char-template-8211" transform="scale(0.00048828125,-0.00048828125)">
   <path d="M -4,459 L 1135,459 1135,606 -4,606 -4,459 Z"/>
  </g>
  <g id="bullet-char-template-61548" transform="scale(0.00048828125,-0.00048828125)">
   <path d="M 173,740 C 173,903 231,1043 346,1159 462,1274 601,1332 765,1332 928,1332 1067,1274 1183,1159 1299,1043 1357,903 1357,740 1357,577 1299,437 1183,322 1067,206 928,148 765,148 601,148 462,206 346,322 231,437 173,577 173,740 Z"/>
  </g>
 </defs>
 <defs class="TextEmbeddedBitmaps"/>
 <g>
  <g id="id2" class="Master_Slide">
   <g id="bg-id2" class="Background"/>
   <g id="bo-id2" class="BackgroundObjects"/>
  </g>
 </g>
 <g class="SlideGroup">
  <g>
   <g id="container-id1">
    <g id="id1" class="Slide" clip-path="url(#presentation_clip_path)">
     <g class="Page">
      <g class="Graphic">
       <g id="id3">
        <rect class="BoundingBox" stroke="none" fill="none" x="48" y="0" width="13274" height="13322"/>
        <path fill="rgb(62,140,183)" stroke="none" d="M 11830,6522 L 11332,4314 10012,4165 9676,3739 9827,2406 7809,1423 6873,2374 6334,2374 5397,1423 3379,2406 3530,3740 3195,4166 1875,4314 1377,6522 2502,7234 2622,7766 1913,8901 3310,10672 4562,10227 5047,10463 5483,11731 7723,11731 8159,10463 8645,10227 9896,10672 11293,8901 10585,7766 10705,7234 11830,6522 Z M 10311,8846 L 9625,9715 8597,9350 7511,9878 7153,10919 6054,10919 5695,9878 4610,9350 3582,9715 2896,8846 3478,7913 3209,6726 2286,6140 2530,5056 3614,4935 4365,3982 4241,2887 5231,2404 6001,3185 7206,3185 7975,2404 8966,2886 8841,3982 9592,4934 10676,5056 10921,6140 9997,6726 9729,7913 10311,8846 Z M 6603,4613 C 5496,4613 4598,5520 4598,6641 4598,7761 5496,8669 6603,8669 7711,8669 8608,7761 8608,6641 8608,5520 7711,4613 6603,4613 L 6603,4613 Z M 6603,8060 C 5829,8060 5200,7423 5200,6641 5200,5858 5829,5221 6603,5221 7377,5221 8007,5858 8007,6641 8007,7423 7377,8060 6603,8060 L 6603,8060 Z"/>
       </g>
      </g>
      <g class="Graphic">
       <g id="id4">
        <rect class="BoundingBox" stroke="none" fill="none" x="8041" y="8141" width="4740" height="4740"/>
        <defs>
         <clipPath id="clip_path_1" clipPathUnits="userSpaceOnUse">
          <path d="M 8041,8141 L 12780,8141 12780,12880 8041,12880 8041,8141 Z"/>
         </clipPath>
        </defs>
        <g clip-path="url(#clip_path_1)">
         <path fill="rgb(236,244,247)" stroke="none" d="M 10651,9306 L 11294,9306 11294,8181 10651,8181 10651,9306 Z"/>
         <path fill="rgb(236,244,247)" stroke="none" d="M 11615,8181 L 11615,9627 9206,9627 9206,8181 10651,8181 10651,9306 11294,9306 11294,8181 11615,8181 Z"/>
         <path fill="rgb(236,244,247)" stroke="none" d="M 8884,12840 L 11937,12840 11937,10751 8884,10751 8884,12840 Z"/>
         <path fill="rgb(128,214,250)" stroke="none" d="M 12740,8984 L 12740,12519 C 12740,12695 12595,12840 12419,12840 L 11937,12840 11937,10751 8884,10751 8884,12840 8402,12840 C 8226,12840 8081,12695 8081,12519 L 8081,8502 C 8081,8326 8226,8181 8402,8181 L 9206,8181 9206,9627 11615,9627 11615,8181 11937,8181 12740,8984 12740,8984 Z"/>
         <path fill="rgb(81,86,95)" stroke="none" d="M 12419,12880 L 11937,12880 C 11913,12880 11896,12864 11896,12840 L 11896,10792 8925,10792 8925,12519 C 8925,12543 8908,12559 8884,12559 8860,12559 8844,12543 8844,12519 L 8844,10751 C 8844,10727 8860,10711 8884,10711 L 11937,10711 C 11961,10711 11977,10727 11977,10751 L 11977,12800 12419,12800 C 12571,12800 12700,12671 12700,12519 L 12700,9000 11921,8221 11334,8221 11334,9306 C 11334,9330 11318,9346 11294,9346 L 10651,9346 C 10627,9346 10611,9330 10611,9306 L 10611,8181 C 10611,8157 10627,8141 10651,8141 L 10973,8141 C 10997,8141 11013,8157 11013,8181 11013,8205 10997,8221 10973,8221 L 10692,8221 10692,9266 11254,9266 11254,8205 C 11246,8197 11246,8189 11246,8181 11246,8157 11262,8141 11286,8141 L 11937,8141 C 11945,8141 11961,8149 11969,8149 L 12772,8952 C 12780,8960 12780,8968 12780,8984 L 12780,12519 C 12780,12719 12619,12880 12419,12880 L 12419,12880 Z M 11615,12880 L 8402,12880 C 8202,12880 8041,12719 8041,12519 L 8041,8502 C 8041,8302 8202,8141 8402,8141 L 8884,8141 C 8908,8141 8925,8157 8925,8181 8925,8205 8908,8221 8884,8221 L 8402,8221 C 8250,8221 8121,8350 8121,8502 L 8121,12519 C 8121,12671 8250,12800 8402,12800 L 11615,12800 C 11639,12800 11655,12816 11655,12840 11655,12864 11639,12880 11615,12880 L 11615,12880 Z M 11133,12077 L 9688,12077 C 9664,12077 9647,12061 9647,12037 9647,12013 9664,11996 9688,11996 L 11133,11996 C 11157,11996 11174,12013 11174,12037 11174,12061 11157,12077 11133,12077 L 11133,12077 Z M 11133,11595 L 9688,11595 C 9664,11595 9647,11579 9647,11555 9647,11531 9664,11515 9688,11515 L 11133,11515 C 11157,11515 11174,11531 11174,11555 11174,11579 11157,11595 11133,11595 L 11133,11595 Z M 11615,9667 L 9206,9667 C 9182,9667 9166,9651 9166,9627 L 9166,8181 C 9166,8157 9182,8141 9206,8141 L 10330,8141 C 10354,8141 10370,8157 10370,8181 10370,8205 10354,8221 10330,8221 L 9246,8221 9246,9587 11575,9587 11575,8502 C 11575,8478 11591,8462 11615,8462 11639,8462 11655,8478 11655,8502 L 11655,9627 C 11655,9651 11639,9667 11615,9667 L 11615,9667 Z"/>
        </g>
       </g>
      </g>
     </g>
    </g>
   </g>
  </g>
 </g>
</svg>