<?xml version="1.0" encoding="UTF-8" standalone="no"?>
<svg
   xmlns:dc="http://purl.org/dc/elements/1.1/"
   xmlns:cc="http://creativecommons.org/ns#"
   xmlns:rdf="http://www.w3.org/1999/02/22-rdf-syntax-ns#"
   xmlns:svg="http://www.w3.org/2000/svg"
   xmlns="http://www.w3.org/2000/svg"
   xmlns:sodipodi="http://sodipodi.sourceforge.net/DTD/sodipodi-0.dtd"
   xmlns:inkscape="http://www.inkscape.org/namespaces/inkscape"
   width="48px"
   height="48px"
   viewBox="0 0 48 48"
   fill="none"
   version="1.1"
   id="svg10"
   sodipodi:docname="help.svg"
   inkscape:version="0.92.4 (5da689c313, 2019-01-14)">
  <metadata
     id="metadata16">
    <rdf:RDF>
      <cc:Work
         rdf:about="">
        <dc:format>image/svg+xml</dc:format>
        <dc:type
           rdf:resource="http://purl.org/dc/dcmitype/StillImage" />
      </cc:Work>
    </rdf:RDF>
  </metadata>
  <defs
     id="defs14" />
  <sodipodi:namedview
     pagecolor="#ffffff"
     bordercolor="#666666"
     borderopacity="1"
     objecttolerance="10"
     gridtolerance="10"
     guidetolerance="10"
     inkscape:pageopacity="0"
     inkscape:pageshadow="2"
     inkscape:window-width="640"
     inkscape:window-height="480"
     id="namedview12"
     showgrid="false"
     inkscape:zoom="4.9166667"
     inkscape:cx="24"
     inkscape:cy="24"
     inkscape:window-x="0"
     inkscape:window-y="0"
     inkscape:window-maximized="0"
     inkscape:current-layer="svg10" />
  <rect
     width="48"
     height="48"
     fill="white"
     fill-opacity="0.01"
     id="rect2" />
  <path
     d="m 24.203389,45.830509 c 6.028277,0 11.485903,-2.443489 15.436462,-6.394048 C 43.590409,35.485904 46.033897,30.028277 46.033897,24 c 0,-6.028276 -2.443488,-11.485904 -6.394046,-15.4365054 -3.950559,-3.9505359 -9.408185,-6.394003 -15.436462,-6.394003 -6.028276,0 -11.485903,2.4434671 -15.4365047,6.394003 C 4.8163482,12.514096 2.3728813,17.971724 2.3728813,24 c 0,6.028277 2.4434669,11.485904 6.394003,15.436461 3.9506017,3.950559 9.4082287,6.394048 15.4365047,6.394048 z"
     id="path4"
     inkscape:connector-curvature="0"
     style="fill:#2f88ff;stroke:#000000;stroke-width:4;stroke-linejoin:round" />
  <path
     d="M24 28.6249V24.6249C27.3137 24.6249 30 21.9386 30 18.6249C30 15.3112 27.3137 12.6249 24 12.6249C20.6863 12.6249 18 15.3112 18 18.6249"
     stroke="white"
     stroke-width="4"
     stroke-linecap="round"
     stroke-linejoin="round"
     id="path6" />
  <path
     fill-rule="evenodd"
     clip-rule="evenodd"
     d="M24 37.6249C25.3807 37.6249 26.5 36.5056 26.5 35.1249C26.5 33.7442 25.3807 32.6249 24 32.6249C22.6193 32.6249 21.5 33.7442 21.5 35.1249C21.5 36.5056 22.6193 37.6249 24 37.6249Z"
     fill="white"
     id="path8" />
</svg>
