<?xml version="1.0" encoding="UTF-8" standalone="no"?>
<!-- Generator: Adobe Illustrator 19.0.0, SVG Export Plug-In . SVG Version: 6.00 Build 0)  -->

<svg
   xmlns:dc="http://purl.org/dc/elements/1.1/"
   xmlns:cc="http://creativecommons.org/ns#"
   xmlns:rdf="http://www.w3.org/1999/02/22-rdf-syntax-ns#"
   xmlns:svg="http://www.w3.org/2000/svg"
   xmlns="http://www.w3.org/2000/svg"
   xmlns:sodipodi="http://sodipodi.sourceforge.net/DTD/sodipodi-0.dtd"
   xmlns:inkscape="http://www.inkscape.org/namespaces/inkscape"
   version="1.1"
   id="Layer_1"
   x="0px"
   y="0px"
   viewBox="0 0 489.8 489.8"
   style="enable-background:new 0 0 489.8 489.8;"
   xml:space="preserve"
   sodipodi:docname="senddesktopfile.svg"
   inkscape:version="0.92.4 (5da689c313, 2019-01-14)"><metadata
   id="metadata48"><rdf:RDF><cc:Work
       rdf:about=""><dc:format>image/svg+xml</dc:format><dc:type
         rdf:resource="http://purl.org/dc/dcmitype/StillImage" /><dc:title></dc:title></cc:Work></rdf:RDF></metadata><defs
   id="defs46" /><sodipodi:namedview
   pagecolor="#ffffff"
   bordercolor="#666666"
   borderopacity="1"
   objecttolerance="10"
   gridtolerance="10"
   guidetolerance="10"
   inkscape:pageopacity="0"
   inkscape:pageshadow="2"
   inkscape:window-width="1024"
   inkscape:window-height="710"
   id="namedview44"
   showgrid="false"
   inkscape:zoom="0.48182933"
   inkscape:cx="244.89999"
   inkscape:cy="244.89999"
   inkscape:window-x="0"
   inkscape:window-y="0"
   inkscape:window-maximized="1"
   inkscape:current-layer="Layer_1" />
<g
   id="g11">
	<g
   id="g9">
		<path
   id="XMLID_2049_"
   style="fill:#3C92CA;"
   d="M340,211.9H149.6c-6.6,0-12-5.4-12-12V68.1c0-6.6,5.4-12,12-12H340    c6.6,0,12,5.4,12,12v131.8C352,206.5,346.6,211.9,340,211.9z" />
		<path
   d="M25.3,442.7h91.2c14,0,25.3-11.4,25.3-25.3V368c0-14-11.4-25.3-25.3-25.3H80V300c0-7.5,6.1-13.7,13.7-13.7h142.1v56.4    h-36.5c-14,0-25.3,11.4-25.3,25.3v49.4c0,14,11.4,25.3,25.3,25.3h91.2c14,0,25.3-11.4,25.3-25.3V368c0-14-11.4-25.3-25.3-25.3H254    v-56.4h142.1c7.5,0,13.7,6.1,13.7,13.7v42.7h-36.5c-14,0-25.3,11.4-25.3,25.3v49.4c0,14,11.4,25.3,25.3,25.3h91.2    c14,0,25.3-11.4,25.3-25.3V368c0-14-11.4-25.3-25.3-25.3H428V300c0-17.5-14.3-31.8-31.8-31.8H253.9v-47.3h74    c18.3,0,33.2-14.9,33.2-33.2V80.3c0-18.3-14.9-33.2-33.2-33.2H161.8c-18.3,0-33.2,14.9-33.2,33.2v107.4    c0,18.3,14.9,33.2,33.2,33.2h74v47.2H93.7c-17.5,0-31.8,14.3-31.8,31.8v42.7H25.3C11.3,342.6,0,354,0,367.9v49.4    C0,431.4,11.4,442.7,25.3,442.7z M297.6,368v49.4c0,4-3.2,7.2-7.2,7.2h-91.2c-4,0-7.2-3.2-7.2-7.2V368c0-4,3.2-7.2,7.2-7.2h91.2    C294.4,360.8,297.6,364.1,297.6,368z M471.5,368v49.4c0,4-3.2,7.2-7.2,7.2h-91.2c-4,0-7.2-3.2-7.2-7.2V368c0-4,3.2-7.2,7.2-7.2    h91.2C468.2,360.8,471.5,364.1,471.5,368z M146.7,187.7V80.3c0-8.3,6.8-15.1,15.1-15.1h166c8.3,0,15.1,6.8,15.1,15.1v107.4    c0,8.3-6.8,15.1-15.1,15.1h-166C153.4,202.8,146.7,196,146.7,187.7z M18.1,368c0-4,3.2-7.2,7.2-7.2h91.2c4,0,7.2,3.2,7.2,7.2v49.4    c0,4-3.2,7.2-7.2,7.2H25.3c-4,0-7.2-3.2-7.2-7.2C18.1,417.4,18.1,368,18.1,368z"
   id="path3" />
		<path
   d="M197.1,122.1h95.4c5,0,9.1-4.1,9.1-9.1s-4.1-9.1-9.1-9.1h-95.4c-5,0-9.1,4.1-9.1,9.1S192.1,122.1,197.1,122.1z"
   id="path5" />
		<path
   d="M301.6,154.9c0-5-4.1-9.1-9.1-9.1h-95.4c-5,0-9.1,4.1-9.1,9.1s4.1,9.1,9.1,9.1h95.4C297.5,164,301.6,159.9,301.6,154.9z"
   id="path7" />
	</g>
</g>
<g
   id="g13">
</g>
<g
   id="g15">
</g>
<g
   id="g17">
</g>
<g
   id="g19">
</g>
<g
   id="g21">
</g>
<g
   id="g23">
</g>
<g
   id="g25">
</g>
<g
   id="g27">
</g>
<g
   id="g29">
</g>
<g
   id="g31">
</g>
<g
   id="g33">
</g>
<g
   id="g35">
</g>
<g
   id="g37">
</g>
<g
   id="g39">
</g>
<g
   id="g41">
</g>
<text
   xml:space="preserve"
   style="font-style:normal;font-weight:normal;font-size:28.8257885px;line-height:1.25;font-family:sans-serif;letter-spacing:0px;word-spacing:0px;fill:#000033;fill-opacity:1;stroke:none;stroke-width:0.72064471"
   x="30.574362"
   y="296.60574"
   id="text860"
   transform="scale(0.72064473,1.3876463)"><tspan
     sodipodi:role="line"
     id="tspan858"
     x="30.574362"
     y="296.60574"
     style="font-style:normal;font-variant:normal;font-weight:bold;font-stretch:normal;font-family:sans-serif;-inkscape-font-specification:'sans-serif Bold';fill:#000033;stroke-width:0.72064471">Desktop</tspan></text>
<text
   xml:space="preserve"
   style="font-style:normal;font-weight:normal;font-size:28.8257885px;line-height:1.25;font-family:sans-serif;letter-spacing:0px;word-spacing:0px;fill:#000033;fill-opacity:1;stroke:none;stroke-width:0.72064471"
   x="272.11929"
   y="293.62027"
   id="text860-3"
   transform="scale(0.72064473,1.3876463)"><tspan
     sodipodi:role="line"
     id="tspan858-6"
     x="272.11929"
     y="293.62027"
     style="font-style:normal;font-variant:normal;font-weight:bold;font-stretch:normal;font-family:sans-serif;-inkscape-font-specification:'sans-serif Bold';fill:#000033;stroke-width:0.72064471">Desktop</tspan></text>
<text
   xml:space="preserve"
   style="font-style:normal;font-weight:normal;font-size:28.8257885px;line-height:1.25;font-family:sans-serif;letter-spacing:0px;word-spacing:0px;fill:#000033;fill-opacity:1;stroke:none;stroke-width:0.72064471"
   x="511.15549"
   y="292.12463"
   id="text860-7"
   transform="scale(0.72064473,1.3876463)"><tspan
     sodipodi:role="line"
     id="tspan858-5"
     x="511.15549"
     y="292.12463"
     style="font-style:normal;font-variant:normal;font-weight:bold;font-stretch:normal;font-family:sans-serif;-inkscape-font-specification:'sans-serif Bold';fill:#000033;stroke-width:0.72064471">Desktop</tspan></text>
</svg>