<?xml version="1.0" encoding="UTF-8" standalone="no"?>
<!-- Generator: Adobe Illustrator 19.0.0, SVG Export Plug-In . SVG Version: 6.00 Build 0)  -->

<svg
   xmlns:dc="http://purl.org/dc/elements/1.1/"
   xmlns:cc="http://creativecommons.org/ns#"
   xmlns:rdf="http://www.w3.org/1999/02/22-rdf-syntax-ns#"
   xmlns:svg="http://www.w3.org/2000/svg"
   xmlns="http://www.w3.org/2000/svg"
   xmlns:sodipodi="http://sodipodi.sourceforge.net/DTD/sodipodi-0.dtd"
   xmlns:inkscape="http://www.inkscape.org/namespaces/inkscape"
   version="1.1"
   id="Layer_1"
   x="0px"
   y="0px"
   viewBox="0 0 508 508"
   style="enable-background:new 0 0 508 508;"
   xml:space="preserve"
   sodipodi:docname="servis.svg"
   inkscape:version="0.92.4 (5da689c313, 2019-01-14)"><metadata
   id="metadata129"><rdf:RDF><cc:Work
       rdf:about=""><dc:format>image/svg+xml</dc:format><dc:type
         rdf:resource="http://purl.org/dc/dcmitype/StillImage" /></cc:Work></rdf:RDF></metadata><defs
   id="defs127" /><sodipodi:namedview
   pagecolor="#ffffff"
   bordercolor="#666666"
   borderopacity="1"
   objecttolerance="10"
   gridtolerance="10"
   guidetolerance="10"
   inkscape:pageopacity="0"
   inkscape:pageshadow="2"
   inkscape:window-width="640"
   inkscape:window-height="480"
   id="namedview125"
   showgrid="false"
   inkscape:zoom="0.46456693"
   inkscape:cx="254"
   inkscape:cy="254"
   inkscape:window-x="0"
   inkscape:window-y="0"
   inkscape:window-maximized="0"
   inkscape:current-layer="Layer_1" />
<path
   style="fill:#F4EFEF;"
   d="M326,163.8h147.6c17.2,0,28.4-18.8,28.4-34V82.2c0-16.4-12-26-28.4-26H38c-15.6,0-32,8.8-32,26v47.6  c0,16.4,15.6,34,32,34h143.2c19.6-20,44.8-26,72-26C281.2,137.8,306,143.8,326,163.8z"
   id="path2" />

<path
   style="fill:#E8E3E3;"
   d="M62.8,88.6c-1.6-0.4-3.2-0.8-5.2-0.8c-9.6,0-17.6,8-17.6,17.6S48,123,57.6,123s17.6-8,17.6-17.6  c0-2-0.4-3.6-0.8-5.2C72.4,93,63.2,89,62.8,88.6z"
   id="path6" />
<g
   id="g14">
	<path
   style="fill:#61C2AB;"
   d="M462,115.8c5.6,0,10-4.4,10-10c0-3.2-0.8-5.6-2.4-7.2c-2.8-2.8-6.8-2.8-7.6-2.8   c-6,0-10.4,4.4-10.4,10S456.4,115.8,462,115.8z"
   id="path8" />
	<path
   style="fill:#61C2AB;"
   d="M422,115.8c2.8,0,5.6-1.2,7.6-3.2s2.8-4.4,2.8-6.8c-0.4-8.8-6-10.4-9.2-10.4c-0.4,0-0.4,0-0.4,0   c-5.6,0-10.4,4.4-10.4,10C412,111.4,416.4,115.8,422,115.8z"
   id="path10" />
	<path
   style="fill:#61C2AB;"
   d="M382,115.8c2.8,0,5.6-1.2,7.6-3.2c1.6-2,2.8-4.4,2.4-6.8c-0.4-8.8-10-10-10.4-10.4   c-5.2,0-10,4.4-10,10C372,111.4,376.4,115.8,382,115.8z"
   id="path12" />
</g>
<g
   id="g20">
	<path
   style="fill:#F4EFEF;"
   d="M142,275.8h-24c-10,0-20-12-20-22v-8.4c0-10,10.4-13.6,20-13.6h23.6c2-12,5.6-24,10.8-32H38   c-15.6,0-32,8.8-32,26v47.6c0,16.8,15.6,34.4,32,34.4h116.4C148.8,295.8,144.8,287,142,275.8C142.4,275.8,142,275.8,142,275.8z"
   id="path16" />
	<path
   style="fill:#F4EFEF;"
   d="M352.8,307.8h120.8c17.2,0,28.4-18.8,28.4-34.4v-47.6c0-16-12-26-28.4-26H355.2   c8,12,12.8,33.2,12.8,52C367.6,272.2,362,287.8,352.8,307.8z"
   id="path18" />
</g>

<path
   style="fill:#E8E3E3;"
   d="M74.8,244.2c-1.2-8-11.2-11.2-11.6-11.6c-1.6-0.4-3.6-0.8-5.6-0.8c-9.6,0-17.6,8-17.6,17.6  S48,267,57.6,267s17.6-8,17.6-17.6c0-1.2-0.4-2.4-0.4-3.6C74.8,245.4,74.8,244.6,74.8,244.2z"
   id="path24" />
<g
   id="g32">
	<path
   style="fill:#61C2AB;"
   d="M462,259.8c3.2,0,6.4-1.6,8.4-4c1.2-1.2,2-3.2,1.6-5.6c-2-10-10-10.4-10.4-10.4c-5.6,0-10,4.4-10,10   C452,255,456.4,259.8,462,259.8z"
   id="path26" />
	<path
   style="fill:#61C2AB;"
   d="M422,259.8c3.2,0,6-1.6,8-3.6c1.6-2,2.4-4,2-6c-1.2-8.4-10-10.4-10.4-10.4c-5.2,0-9.6,4.4-9.6,10   S416.4,259.8,422,259.8z"
   id="path28" />
	<path
   style="fill:#61C2AB;"
   d="M382,259.8c3.2,0,6.4-1.6,8.4-4c1.2-1.2,2.4-3.2,1.6-6c-1.6-9.2-10-10.4-10.4-10.4   c-5.2,0-10,4.4-10,10C372,255,376.4,259.8,382,259.8z"
   id="path30" />
</g>
<path
   style="fill:#F4EFEF;"
   d="M473.6,343.8H322h-1.6c-18.8,12-42,22-66.8,22s-48-10-66.8-22H186H38c-15.6,0-32,8.4-32,25.6V417  c0,16.8,15.6,34.4,32,34.4h435.2c17.2,0,28.4-18.8,28.4-34.4v-47.6C502,353,490.4,343.8,473.6,343.8z"
   id="path34" />

<path
   style="fill:#E8E3E3;"
   d="M63.2,376.6c-2-0.8-3.6-0.8-5.6-0.8c-9.6,0-17.6,8-17.6,17.6S48,411,57.6,411s17.6-8,17.6-17.6  c0-1.6-0.4-3.2-0.8-5.2C72,378.6,63.6,376.6,63.2,376.6z"
   id="path38" />
<g
   id="g46">
	<path
   style="fill:#61C2AB;"
   d="M462,383.4c-5.6,0-10,4.4-10,10s4.4,10,10,10c3.2,0,6.4-1.6,8.4-4c1.2-1.2,2-3.2,1.6-5.6   C470.4,383.8,462,383.4,462,383.4z"
   id="path40" />
	<path
   style="fill:#61C2AB;"
   d="M422.8,383.4c-0.4,0-0.4,0-0.4,0c-5.6,0-10.4,4.4-10.4,10s4.4,10,10,10c2.8,0,5.6-1.2,7.6-3.2   c1.6-2,2.8-4.4,2.4-6.8C431.6,384.6,426,383.4,422.8,383.4z"
   id="path42" />
	<path
   style="fill:#61C2AB;"
   d="M382,383.4c-5.6,0-10,4.4-10,10s4.4,10,10,10c2.8,0,5.6-1.2,7.6-3.2s2.8-4.4,2.8-6.8   C392,383.8,382.4,383.4,382,383.4z"
   id="path44" />
</g>
<path
   style="fill:#99ff66"
   d="M350.4,197.8c-0.4-1.2-1.2-2.4-2-3.2c-6.4-10.8-14.4-20.4-24-28.8c-1.2-1.2-2.8-2-4-3.2  c-18.4-14.4-41.6-22.8-66.8-22.8c-24.8,0-48,8.4-66.4,22.4c-1.6,1.2-2.8,2.4-4.4,3.6c-9.6,8-17.6,17.6-24,28.4  c-0.8,1.2-1.6,2.4-2,3.6c-8.4,15.6-13.2,33.2-13.2,52c0,19.6,5.2,38,14,54c8.8,15.2,21.2,28.4,35.6,38c17.2,11.2,37.6,18,60,18  s42.8-6.4,60-18c15.2-10,27.6-23.6,36.4-39.2c8.4-15.6,13.6-33.6,13.6-52.8C363.6,231,358.8,213.4,350.4,197.8z"
   id="path48" />
<path
   d="M473.6,169.8H330c-2.4,0-4-1.6-4-4s1.6-4,4-4h143.6c15.2,0,26.4-16.8,26.4-32V82.2c0-14.8-10.4-24-26.4-24H38  c-14.8,0-30,8.4-30,24v47.6c0,16,15.2,32,30,32h140c2.4,0,4,1.6,4,4s-1.6,4-4,4H38c-19.2,0-38-20-38-40V82.2c0-20.8,19.6-32,38-32  h435.2c20.8,0,34.4,12.8,34.4,32v47.6C508,148.6,494,169.8,473.6,169.8z"
   id="path50" />

<path
   d="M57.6,129.4c-13.2,0-23.6-10.8-23.6-23.6s10.8-23.6,23.6-23.6c2.4,0,4.8,0.4,7.2,1.2c2,0.8,3.2,2.8,2.4,5.2  c-0.8,2-2.8,3.2-5.2,2.4c-1.6-0.4-3.2-0.8-4.8-0.8c-8.8,0-15.6,7.2-15.6,15.6s7.2,15.6,15.6,15.6c8.8,0,15.6-7.2,15.6-15.6  c0-1.6-0.4-3.2-0.8-4.8c-0.8-2,0.4-4.4,2.8-4.8c2-0.8,4.4,0.4,4.8,2.8c0.8,2.4,1.2,4.4,1.2,6.8C81.6,119,70.8,129.4,57.6,129.4z"
   id="path54" />
<path
   d="M462,121.8c-8.8,0-16-7.2-16-16s7.2-16,16-16c2.4,0,4,1.6,4,4s-1.6,4-4,4c-4.4,0-8,3.6-8,8s3.6,8,8,8s8-3.6,8-8  c0-2.4,1.6-4,4-4s4,1.6,4,4C478,114.6,470.8,121.8,462,121.8z"
   id="path56" />
<path
   d="M422,121.8c-8.8,0-16-7.2-16-16s7.2-16,16-16c2.4,0,4,1.6,4,4s-1.6,4-4,4c-4.4,0-8,3.6-8,8s3.6,8,8,8s8-3.6,8-8  c0-2.4,1.6-4,4-4s4,1.6,4,4C438,114.6,430.8,121.8,422,121.8z"
   id="path58" />
<path
   d="M382,121.8c-8.8,0-16-7.2-16-16s7.2-16,16-16c2.4,0,4,1.6,4,4s-1.6,4-4,4c-4.4,0-8,3.6-8,8s3.6,8,8,8s8-3.6,8-8  c0-2.4,1.6-4,4-4s4,1.6,4,4C398,114.6,390.8,121.8,382,121.8z"
   id="path60" />
<path
   d="M158,313.8H38c-19.2,0-38-20-38-40.4v-47.6c0-20.8,19.6-32,38-32h116c2.4,0,4,1.6,4,4s-1.6,4-4,4H38c-14.8,0-30,8.4-30,24  v47.6c0,16,15.2,32.4,30,32.4h120c2.4,0,4,1.6,4,4S160.4,313.8,158,313.8z"
   id="path62" />
<path
   d="M473.6,313.8H350c-2.4,0-4-1.6-4-4s1.6-4,4-4h123.6c15.2,0,26.4-17.2,26.4-32.4v-47.6c0-14.4-10.4-24-26.4-24H354  c-2.4,0-4-1.6-4-4s1.6-4,4-4h119.6c20.8,0,34.4,12.8,34.4,32v47.6C508,292.6,494,313.8,473.6,313.8z"
   id="path64" />

<path
   d="M57.6,273.4c-13.2,0-23.6-10.8-23.6-23.6s10.8-23.6,23.6-23.6c2.4,0,4.8,0.4,7.2,1.2c2,0.8,3.2,2.8,2.4,5.2  c-0.8,2-2.8,3.2-5.2,2.4c-1.6-0.4-3.2-0.8-4.8-0.8c-8.8,0-15.6,7.2-15.6,15.6c0,8.8,7.2,15.6,15.6,15.6c8.8,0,15.6-7.2,15.6-15.6  c0-1.6-0.4-3.2-0.8-4.8c-0.8-2,0.4-4.4,2.8-4.8c2-0.8,4.4,0.4,4.8,2.8c0.8,2.4,1.2,4.4,1.2,6.8C81.6,262.6,70.8,273.4,57.6,273.4z"
   id="path68" />
<path
   d="M462,265.8c-8.8,0-16-7.2-16-16s7.2-16,16-16c2.4,0,4,1.6,4,4s-1.6,4-4,4c-4.4,0-8,3.6-8,8s3.6,8,8,8s8-3.6,8-8  c0-2.4,1.6-4,4-4s4,1.6,4,4C478,258.6,470.8,265.8,462,265.8z"
   id="path70" />
<path
   d="M422,265.8c-8.8,0-16-7.2-16-16s7.2-16,16-16c2.4,0,4,1.6,4,4s-1.6,4-4,4c-4.4,0-8,3.6-8,8s3.6,8,8,8s8-3.6,8-8  c0-2.4,1.6-4,4-4s4,1.6,4,4C438,258.6,430.8,265.8,422,265.8z"
   id="path72" />
<path
   d="M382,265.8c-8.8,0-16-7.2-16-16s7.2-16,16-16c2.4,0,4,1.6,4,4s-1.6,4-4,4c-4.4,0-8,3.6-8,8s3.6,8,8,8s8-3.6,8-8  c0-2.4,1.6-4,4-4s4,1.6,4,4C398,258.6,390.8,265.8,382,265.8z"
   id="path74" />
<path
   d="M473.6,457.8H38c-19.2,0-38-20-38-40.4v-47.6c0-20.8,19.2-31.6,38-31.6h148c2.4,0,4,1.6,4,4s-1.6,4-4,4H38  c-14.8,0-30,8-30,23.6v47.6c0,16,15.2,32.4,30,32.4h435.2c15.2,0,26.4-17.2,26.4-32.4v-47.6c0-14.8-10-23.6-26.4-23.6H318  c-2.4,0-4-1.6-4-4s1.6-4,4-4h155.6c20.8,0,34.4,12.8,34.4,31.6v47.6C508,436.6,494,457.8,473.6,457.8z"
   id="path76" />

<path
   d="M57.6,417C44.4,417,34,406.2,34,393.4s10.8-23.6,23.6-23.6c2.4,0,4.8,0.4,7.2,1.2c2,0.8,3.2,2.8,2.4,5.2  c-0.8,2-2.8,3.2-5.2,2.4c-1.6-0.4-3.2-0.8-4.8-0.8c-8.8,0-15.6,7.2-15.6,15.6c0,8.8,7.2,15.6,15.6,15.6c8.8,0,15.6-7.2,15.6-15.6  c0-1.6-0.4-3.2-0.8-4.8c-0.8-2,0.4-4.4,2.8-4.8c2-0.8,4.4,0.4,4.8,2.8c0.8,2.4,1.2,4.4,1.2,6.8C81.6,406.6,70.8,417,57.6,417z"
   id="path80" />
<path
   d="M462,409.4c-8.8,0-16-7.2-16-16s7.2-16,16-16c2.4,0,4,1.6,4,4s-1.6,4-4,4c-4.4,0-8,3.6-8,8s3.6,8,8,8s8-3.6,8-8  c0-2.4,1.6-4,4-4s4,1.6,4,4C478,402.2,470.8,409.4,462,409.4z"
   id="path82" />
<path
   d="M422,409.4c-8.8,0-16-7.2-16-16s7.2-16,16-16c2.4,0,4,1.6,4,4s-1.6,4-4,4c-4.4,0-8,3.6-8,8s3.6,8,8,8s8-3.6,8-8  c0-2.4,1.6-4,4-4s4,1.6,4,4C438,402.2,430.8,409.4,422,409.4z"
   id="path84" />
<path
   d="M382,409.4c-8.8,0-16-7.2-16-16s7.2-16,16-16c2.4,0,4,1.6,4,4s-1.6,4-4,4c-4.4,0-8,3.6-8,8s3.6,8,8,8s8-3.6,8-8  c0-2.4,1.6-4,4-4s4,1.6,4,4C398,402.2,390.8,409.4,382,409.4z"
   id="path86" />
<path
   d="M253.6,365.8c-64,0-116-52-116-116s52-116,116-116s116,52,116,116S317.6,365.8,253.6,365.8z M253.6,141.8  c-59.6,0-108,48.4-108,108s48.4,108,108,108s108-48.4,108-108S313.2,141.8,253.6,141.8z"
   id="path88" />
<path
   d="M244.8,289.4c-1.2,0-2-0.4-2.8-1.2l-36.4-36.4c-1.6-1.6-1.6-4,0-5.6s4-1.6,5.6,0l36.4,36.4c1.6,1.6,1.6,4,0,5.6  C247.2,289,246,289.4,244.8,289.4z"
   id="path90" />
<path
   d="M244.8,289.4c-1.2,0-2-0.4-2.8-1.2c-1.6-1.6-1.6-4,0-5.6l57.2-57.2c1.6-1.6,4-1.6,5.6,0s1.6,4,0,5.6l-57.2,57.2  C247.2,289,246,289.4,244.8,289.4z"
   id="path92" />
<g
   id="g94">
</g>
<g
   id="g96">
</g>
<g
   id="g98">
</g>
<g
   id="g100">
</g>
<g
   id="g102">
</g>
<g
   id="g104">
</g>
<g
   id="g106">
</g>
<g
   id="g108">
</g>
<g
   id="g110">
</g>
<g
   id="g112">
</g>
<g
   id="g114">
</g>
<g
   id="g116">
</g>
<g
   id="g118">
</g>
<g
   id="g120">
</g>
<g
   id="g122">
</g>
</svg>