<?xml version="1.0" encoding="UTF-8" standalone="no"?>
<!-- Generator: Adobe Illustrator 18.0.0, SVG Export Plug-In . SVG Version: 6.00 Build 0)  -->

<svg
   version="1.1"
   id="Capa_1"
   x="0px"
   y="0px"
   viewBox="0 0 60 60"
   style="enable-background:new 0 0 60 60;"
   xml:space="preserve"
   sodipodi:docname="video.svg"
   inkscape:version="1.2.2 (b0a8486541, 2022-12-01)"
   xmlns:inkscape="http://www.inkscape.org/namespaces/inkscape"
   xmlns:sodipodi="http://sodipodi.sourceforge.net/DTD/sodipodi-0.dtd"
   xmlns="http://www.w3.org/2000/svg"
   xmlns:svg="http://www.w3.org/2000/svg"><defs
   id="defs1237" /><sodipodi:namedview
   id="namedview1235"
   pagecolor="#ffffff"
   bordercolor="#000000"
   borderopacity="0.25"
   inkscape:showpageshadow="2"
   inkscape:pageopacity="0.0"
   inkscape:pagecheckerboard="0"
   inkscape:deskcolor="#d1d1d1"
   showgrid="false"
   inkscape:zoom="4.5537677"
   inkscape:cx="30.304576"
   inkscape:cy="41.284495"
   inkscape:window-width="1366"
   inkscape:window-height="667"
   inkscape:window-x="0"
   inkscape:window-y="0"
   inkscape:window-maximized="1"
   inkscape:current-layer="g1194" />
<g
   id="g1202">
	<g
   id="g1194"
   transform="matrix(1.0340756,0,0,1.3055282,0.21959838,-4.3633244)">
		<g
   id="g1142">
			<rect
   x="1"
   y="4.5"
   style="fill:#8697cb"
   width="56"
   height="44"
   id="rect1138" />
			<path
   style="fill:#535d73"
   d="M 58,49.5 H 0 V 3.5 H 58 Z M 2,47.5 H 56 V 5.5 H 2 Z"
   id="path1140" />
		</g>
		<polygon
   style="fill:#00ff00"
   points="25,19.5 36,26.5 25,33.5 25,26.454 "
   id="polygon1144"
   transform="matrix(2.9259942,0,0,1.6663788,-59.564849,-17.950319)" />
		<g
   id="g1150">
			<rect
   x="1"
   y="4.5"
   style="fill:#687492"
   width="10"
   height="11"
   id="rect1146" />
			<path
   style="fill:#535d73"
   d="M 12,16.5 H 0 v -13 h 12 z m -10,-2 h 8 v -9 H 2 Z"
   id="path1148" />
		</g>
		<g
   id="g1156">
			<rect
   x="1"
   y="15.5"
   style="fill:#687492"
   width="10"
   height="11"
   id="rect1152" />
			<path
   style="fill:#535d73"
   d="M 12,27.5 H 0 v -13 h 12 z m -10,-2 h 8 v -9 H 2 Z"
   id="path1154" />
		</g>
		<g
   id="g1162">
			<rect
   x="1"
   y="26.5"
   style="fill:#687492"
   width="10"
   height="11"
   id="rect1158" />
			<path
   style="fill:#535d73"
   d="M 12,38.5 H 0 v -13 h 12 z m -10,-2 h 8 v -9 H 2 Z"
   id="path1160" />
		</g>
		<g
   id="g1168">
			<rect
   x="1"
   y="37.5"
   style="fill:#687492"
   width="10"
   height="11"
   id="rect1164" />
			<path
   style="fill:#535d73"
   d="M 12,49.5 H 0 v -13 h 12 z m -10,-2 h 8 v -9 H 2 Z"
   id="path1166" />
		</g>
		<g
   id="g1174">
			<rect
   x="47"
   y="4.5"
   style="fill:#687492"
   width="10"
   height="11"
   id="rect1170" />
			<path
   style="fill:#535d73"
   d="M 58,16.5 H 46 v -13 h 12 z m -10,-2 h 8 v -9 h -8 z"
   id="path1172" />
		</g>
		<g
   id="g1180">
			<rect
   x="47"
   y="15.5"
   style="fill:#687492"
   width="10"
   height="11"
   id="rect1176" />
			<path
   style="fill:#535d73"
   d="M 58,27.5 H 46 v -13 h 12 z m -10,-2 h 8 v -9 h -8 z"
   id="path1178" />
		</g>
		<g
   id="g1186">
			<rect
   x="47"
   y="26.5"
   style="fill:#687492"
   width="10"
   height="11"
   id="rect1182" />
			<path
   style="fill:#535d73"
   d="M 58,38.5 H 46 v -13 h 12 z m -10,-2 h 8 v -9 h -8 z"
   id="path1184" />
		</g>
		<g
   id="g1192">
			<rect
   x="47"
   y="37.5"
   style="fill:#687492"
   width="10"
   height="11"
   id="rect1188" />
			<path
   style="fill:#535d73"
   d="M 58,49.5 H 46 v -13 h 12 z m -10,-2 h 8 v -9 h -8 z"
   id="path1190" />
		</g>
	</g>
	
</g>
<g
   id="g1204">
</g>
<g
   id="g1206">
</g>
<g
   id="g1208">
</g>
<g
   id="g1210">
</g>
<g
   id="g1212">
</g>
<g
   id="g1214">
</g>
<g
   id="g1216">
</g>
<g
   id="g1218">
</g>
<g
   id="g1220">
</g>
<g
   id="g1222">
</g>
<g
   id="g1224">
</g>
<g
   id="g1226">
</g>
<g
   id="g1228">
</g>
<g
   id="g1230">
</g>
<g
   id="g1232">
</g>
</svg>
