<?xml version="1.0" encoding="UTF-8" standalone="no"?>
<!-- Generator: Adobe Illustrator 19.0.0, SVG Export Plug-In . SVG Version: 6.00 Build 0)  -->

<svg
   xmlns:dc="http://purl.org/dc/elements/1.1/"
   xmlns:cc="http://creativecommons.org/ns#"
   xmlns:rdf="http://www.w3.org/1999/02/22-rdf-syntax-ns#"
   xmlns:svg="http://www.w3.org/2000/svg"
   xmlns="http://www.w3.org/2000/svg"
   xmlns:sodipodi="http://sodipodi.sourceforge.net/DTD/sodipodi-0.dtd"
   xmlns:inkscape="http://www.inkscape.org/namespaces/inkscape"
   version="1.1"
   id="Layer_1"
   x="0px"
   y="0px"
   viewBox="0 0 512.883 512.883"
   style="enable-background:new 0 0 512.883 512.883;"
   xml:space="preserve"
   sodipodi:docname="webblock.svg"
   inkscape:version="0.92.4 (5da689c313, 2019-01-14)"><metadata
   id="metadata103"><rdf:RDF><cc:Work
       rdf:about=""><dc:format>image/svg+xml</dc:format><dc:type
         rdf:resource="http://purl.org/dc/dcmitype/StillImage" /><dc:title></dc:title></cc:Work></rdf:RDF></metadata><defs
   id="defs101" /><sodipodi:namedview
   pagecolor="#ffffff"
   bordercolor="#666666"
   borderopacity="1"
   objecttolerance="10"
   gridtolerance="10"
   guidetolerance="10"
   inkscape:pageopacity="0"
   inkscape:pageshadow="2"
   inkscape:window-width="640"
   inkscape:window-height="480"
   id="namedview99"
   showgrid="false"
   inkscape:zoom="0.46014394"
   inkscape:cx="256.4415"
   inkscape:cy="256.4415"
   inkscape:window-x="0"
   inkscape:window-y="0"
   inkscape:window-maximized="0"
   inkscape:current-layer="Layer_1" />
<path
   style="fill:#E8EDEE;"
   d="M0,106.372v386.648c0,10.593,8.828,19.421,19.421,19.421h104.166h264.828h104.166  c10.593,0,19.421-8.828,19.421-19.421V106.372H0z"
   id="path2" />
<path
   style="fill:#546A79;"
   d="M512,106.372H0V17.214C0,7.503,7.062,0.441,16.772,0.441H496.11c8.828,0,16.772,7.062,16.772,16.772  v89.159H512z"
   id="path4" />
<path
   style="fill:#ED7161;"
   d="M79.448,53.407c0,15.007-11.476,26.483-26.483,26.483S26.483,68.414,26.483,53.407  s11.476-26.483,26.483-26.483S79.448,38.4,79.448,53.407"
   id="path6" />
<path
   style="fill:#ECBA16;"
   d="M158.897,53.407c0,15.007-11.476,26.483-26.483,26.483c-15.007,0-26.483-11.476-26.483-26.483  s11.476-26.483,26.483-26.483C147.421,26.924,158.897,38.4,158.897,53.407"
   id="path8" />
<path
   style="fill:#42B05C;"
   d="M238.345,53.407c0,15.007-11.476,26.483-26.483,26.483c-15.007,0-26.483-11.476-26.483-26.483  s11.476-26.483,26.483-26.483C226.869,26.924,238.345,38.4,238.345,53.407"
   id="path10" />
<path
   style="fill:#7383BF;"
   d="M158.897,176.993H44.138c-5.297,0-8.828-3.531-8.828-8.828s3.531-8.828,8.828-8.828h114.759  c5.297,0,8.828,3.531,8.828,8.828S164.193,176.993,158.897,176.993"
   id="path12" />
<path
   style="fill:#ECBA16;"
   d="M282.483,176.993h-88.276c-5.297,0-8.828-3.531-8.828-8.828s3.531-8.828,8.828-8.828h88.276  c5.297,0,8.828,3.531,8.828,8.828S287.779,176.993,282.483,176.993"
   id="path14" />
<path
   style="fill:#42B05C;"
   d="M335.448,176.993h-17.655c-5.297,0-8.828-3.531-8.828-8.828s3.531-8.828,8.828-8.828h17.655  c5.297,0,8.828,3.531,8.828,8.828S340.745,176.993,335.448,176.993"
   id="path16" />
<path
   style="fill:#7383BF;"
   d="M379.586,212.303H247.172c-5.297,0-8.828-3.531-8.828-8.828s3.531-8.828,8.828-8.828h132.414  c5.297,0,8.828,3.531,8.828,8.828S384.883,212.303,379.586,212.303"
   id="path18" />
<g
   id="g24">
	<path
   style="fill:#DD342E;"
   d="M211.862,212.303H88.276c-5.297,0-8.828-3.531-8.828-8.828s3.531-8.828,8.828-8.828h123.586   c5.297,0,8.828,3.531,8.828,8.828S217.159,212.303,211.862,212.303"
   id="path20" />
	<path
   style="fill:#DD342E;"
   d="M52.966,212.303h-8.828c-5.297,0-8.828-3.531-8.828-8.828s3.531-8.828,8.828-8.828h8.828   c5.297,0,8.828,3.531,8.828,8.828S58.262,212.303,52.966,212.303"
   id="path22" />
</g>
<path
   style="fill:#7383BF;"
   d="M123.586,247.614H44.138c-5.297,0-8.828-3.531-8.828-8.828s3.531-8.828,8.828-8.828h79.448  c5.297,0,8.828,3.531,8.828,8.828S128.883,247.614,123.586,247.614"
   id="path26" />
<path
   style="fill:#ECBA16;"
   d="M176.552,247.614h-17.655c-5.297,0-8.828-3.531-8.828-8.828s3.531-8.828,8.828-8.828h17.655  c5.297,0,8.828,3.531,8.828,8.828S181.848,247.614,176.552,247.614"
   id="path28" />
<path
   style="fill:#42B05C;"
   d="M335.448,247.614H211.862c-5.297,0-8.828-3.531-8.828-8.828s3.531-8.828,8.828-8.828h123.586  c5.297,0,8.828,3.531,8.828,8.828S340.745,247.614,335.448,247.614"
   id="path30" />
<path
   style="fill:#DD342E;"
   d="M158.897,282.924H44.138c-5.297,0-8.828-3.531-8.828-8.828c0-5.297,3.531-8.828,8.828-8.828h114.759  c5.297,0,8.828,3.531,8.828,8.828C167.724,279.393,164.193,282.924,158.897,282.924"
   id="path32" />
<path
   style="fill:#7383BF;"
   d="M282.483,282.924h-88.276c-5.297,0-8.828-3.531-8.828-8.828c0-5.297,3.531-8.828,8.828-8.828h88.276  c5.297,0,8.828,3.531,8.828,8.828C291.31,279.393,287.779,282.924,282.483,282.924"
   id="path34" />
<path
   style="fill:#ECBA16;"
   d="M282.483,318.234h-35.31c-5.297,0-8.828-3.531-8.828-8.828c0-5.297,3.531-8.828,8.828-8.828h35.31  c5.297,0,8.828,3.531,8.828,8.828C291.31,314.703,287.779,318.234,282.483,318.234"
   id="path36" />
<path
   style="fill:#42B05C;"
   d="M211.862,318.234H88.276c-5.297,0-8.828-3.531-8.828-8.828c0-5.297,3.531-8.828,8.828-8.828h123.586  c5.297,0,8.828,3.531,8.828,8.828C220.69,314.703,217.159,318.234,211.862,318.234"
   id="path38" />
<path
   style="fill:#ECBA16;"
   d="M52.966,318.234h-8.828c-5.297,0-8.828-3.531-8.828-8.828c0-5.297,3.531-8.828,8.828-8.828h8.828  c5.297,0,8.828,3.531,8.828,8.828C61.793,314.703,58.262,318.234,52.966,318.234"
   id="path40" />
<path
   style="fill:#DD342E;"
   d="M123.586,353.545H44.138c-5.297,0-8.828-3.531-8.828-8.828s3.531-8.828,8.828-8.828h79.448  c5.297,0,8.828,3.531,8.828,8.828S128.883,353.545,123.586,353.545"
   id="path42" />
<path
   style="fill:#ECBA16;"
   d="M176.552,353.545h-17.655c-5.297,0-8.828-3.531-8.828-8.828s3.531-8.828,8.828-8.828h17.655  c5.297,0,8.828,3.531,8.828,8.828S181.848,353.545,176.552,353.545"
   id="path44" />
<path
   style="fill:#7383BF;"
   d="M273.655,353.545h-61.793c-5.297,0-8.828-3.531-8.828-8.828s3.531-8.828,8.828-8.828h61.793  c5.297,0,8.828,3.531,8.828,8.828S278.952,353.545,273.655,353.545"
   id="path46" />
<path
   style="fill:#42B05C;"
   d="M158.897,388.855H44.138c-5.297,0-8.828-3.531-8.828-8.828s3.531-8.828,8.828-8.828h114.759  c5.297,0,8.828,3.531,8.828,8.828S164.193,388.855,158.897,388.855"
   id="path48" />
<path
   style="fill:#ECBA16;"
   d="M238.345,388.855h-44.138c-5.297,0-8.828-3.531-8.828-8.828s3.531-8.828,8.828-8.828h44.138  c5.297,0,8.828,3.531,8.828,8.828S243.641,388.855,238.345,388.855"
   id="path50" />
<path
   style="fill:#DD342E;"
   d="M211.862,424.166H88.276c-5.297,0-8.828-3.531-8.828-8.828s3.531-8.828,8.828-8.828h123.586  c5.297,0,8.828,3.531,8.828,8.828S217.159,424.166,211.862,424.166"
   id="path52" />
<path
   style="fill:#7383BF;"
   d="M52.966,424.166h-8.828c-5.297,0-8.828-3.531-8.828-8.828s3.531-8.828,8.828-8.828h8.828  c5.297,0,8.828,3.531,8.828,8.828S58.262,424.166,52.966,424.166"
   id="path54" />
<path
   style="fill:#42B05C;"
   d="M123.586,459.476H44.138c-5.297,0-8.828-3.531-8.828-8.828s3.531-8.828,8.828-8.828h79.448  c5.297,0,8.828,3.531,8.828,8.828S128.883,459.476,123.586,459.476"
   id="path56" />
<path
   style="fill:#ECBA16;"
   d="M176.552,459.476h-17.655c-5.297,0-8.828-3.531-8.828-8.828s3.531-8.828,8.828-8.828h17.655  c5.297,0,8.828,3.531,8.828,8.828S181.848,459.476,176.552,459.476"
   id="path58" />
<path
   style="fill:#7383BF;"
   d="M256,459.476h-44.138c-5.297,0-8.828-3.531-8.828-8.828s3.531-8.828,8.828-8.828H256  c5.297,0,8.828,3.531,8.828,8.828S261.297,459.476,256,459.476"
   id="path60" />
<path
   style="fill:#FFFFFF;"
   d="M496.11,425.931l-0.883,1.766c-62.676,96.221-165.959,96.221-228.634,0l0,0l0.883-1.766  C330.152,329.71,433.434,329.71,496.11,425.931L496.11,425.931z"
   id="path62" />
<path
   style="fill:#434C6D;"
   d="M431.669,405.628c0,29.131-22.952,52.083-52.083,52.083s-52.083-22.952-52.083-52.083  c0-29.131,22.952-52.083,52.083-52.083C407.835,353.545,431.669,376.497,431.669,405.628"
   id="path64" />
<path
   style="fill:#A2C9EC;"
   d="M277.186,426.814c28.248,40.607,65.324,63.559,103.283,63.559c38.841,0,75.917-22.952,105.048-64.441  c-28.248-40.607-65.324-63.559-103.283-63.559C342.51,362.372,305.434,385.324,277.186,426.814 M380.469,508.028  c-46.786,0-89.159-27.366-121.821-75.917L256,426.814l4.414-6.179c31.779-48.552,75.034-75.917,120.938-75.917  c46.786,0,89.159,27.366,121.821,75.917l3.531,4.414l-4.414,6.179C470.51,480.662,427.255,508.028,380.469,508.028"
   id="path66" />
<g
   id="g68">
</g>
<g
   id="g70">
</g>
<g
   id="g72">
</g>
<g
   id="g74">
</g>
<g
   id="g76">
</g>
<g
   id="g78">
</g>
<g
   id="g80">
</g>
<g
   id="g82">
</g>
<g
   id="g84">
</g>
<g
   id="g86">
</g>
<g
   id="g88">
</g>
<g
   id="g90">
</g>
<g
   id="g92">
</g>
<g
   id="g94">
</g>
<g
   id="g96">
</g>
<path
   inkscape:connector-curvature="0"
   style="fill:#cc092e;stroke-width:1"
   d="m 515.59085,295.75149 -78.7607,-77.36676 c -2.62546,-2.57914 -6.18378,-4.02839 -9.89051,-4.02839 H 315.55392 c -3.71557,0 -7.27389,1.44925 -9.89934,4.02839 l -78.756,77.36676 c -2.62545,2.57915 -4.10073,6.0747 -4.10073,9.72472 V 414.8977 c 0,3.64598 1.47528,7.14096 4.10073,9.7201 l 78.76012,77.37081 c 2.62074,2.57914 6.18377,4.02839 9.89934,4.02839 h 111.3869 c 3.70673,0 7.26446,-1.44462 9.89051,-4.02376 l 78.76482,-77.37081 c 2.62075,-2.57915 4.10073,-6.0747 4.10073,-9.72473 V 305.47621 c -0.009,-3.65002 -1.48469,-7.14557 -4.11015,-9.72472 z"
   id="path2-7" /><path
   inkscape:connector-curvature="0"
   style="fill:#e81542;stroke-width:1"
   d="m 262.12255,261.15349 -35.22397,34.598 c -2.62545,2.57915 -4.10073,6.0747 -4.10073,9.72472 V 414.8977 c 0,3.64598 1.47528,7.14096 4.10073,9.7201 l 78.76012,77.37081 c 2.62074,2.57914 6.18377,4.02839 9.89934,4.02839 h 111.3869 c 3.70673,0 7.26446,-1.44462 9.89051,-4.02376 l 35.22338,-34.60205 z"
   id="path4-0" /><g
   transform="matrix(0.58893112,0,0,0.57854256,222.79785,214.35402)"
   id="g14"
   style="stroke-width:1.7131685"><path
     inkscape:connector-curvature="0"
     style="fill:#b2042e;stroke-width:1.7131685"
     d="m 86.355,247.15 c -15.88,-6.136 -20.708,-10.547 -20.708,-18.857 0,-6.254 4.726,-13.564 18.062,-13.564 9.106,0 16.061,2.757 20.307,5.065 1.016,0.551 2.229,0.638 3.308,0.213 1.095,-0.425 1.938,-1.308 2.308,-2.41 l 4.151,-12.304 c 0.614,-1.788 -0.142,-3.757 -1.788,-4.687 -4.104,-2.324 -13.17,-6.231 -27.766,-6.231 -24.568,0 -41.724,14.659 -41.724,35.659 0,16.786 10.957,28.83 33.367,36.777 16.305,6.262 19.495,11.91 19.495,19.543 0,10.012 -7.664,15.99 -20.496,15.99 -8.476,0 -17.818,-2.631 -24.986,-7.042 -1.016,-0.638 -2.308,-0.764 -3.458,-0.331 -1.142,0.433 -2.016,1.371 -2.371,2.544 l -3.812,12.65 c -0.488,1.662 0.142,3.45 1.583,4.419 7.168,4.773 20.338,8.113 31.996,8.113 30.988,0 44.843,-18.865 44.843,-37.565 0.008,-17.864 -9.665,-29.23 -32.311,-37.982 z"
     id="path6-9" /><path
     inkscape:connector-curvature="0"
     style="fill:#b2042e;stroke-width:1.7131685"
     d="m 225.816,196.281 h -86.489 c -2.166,0 -3.938,1.764 -3.938,3.938 v 12.824 c 0,2.174 1.772,3.938 3.938,3.938 h 31.602 v 100.053 c 0,2.174 1.757,3.938 3.938,3.938 h 15.25 c 2.182,0 3.938,-1.764 3.938,-3.938 V 216.982 h 31.768 c 2.182,0 3.938,-1.764 3.938,-3.938 V 200.22 c -0.007,-2.174 -1.763,-3.939 -3.945,-3.939 z"
     id="path8-3" /><path
     inkscape:connector-curvature="0"
     style="fill:#b2042e;stroke-width:1.7131685"
     d="m 298.772,194.375 c -34.265,0 -58.187,26.852 -58.187,65.292 0,37.218 23.213,63.212 56.446,63.212 28.971,0 58.187,-20.244 58.187,-65.465 0,-37.707 -22.678,-63.039 -56.446,-63.039 z m -0.867,108.323 c -22.89,0 -33.319,-22.481 -33.319,-43.378 0,-22.284 10.35,-44.765 33.493,-44.765 22.89,0 33.319,22.575 33.319,43.552 0,22.189 -10.35,44.591 -33.493,44.591 z"
     id="path10-6" /><path
     inkscape:connector-curvature="0"
     style="fill:#b2042e;stroke-width:1.7131685"
     d="m 452.506,206.127 c -7.893,-7.113 -19.803,-10.713 -35.383,-10.713 -10.602,0 -20.275,0.756 -29.601,2.3 -1.89,0.315 -3.293,1.961 -3.293,3.883 v 115.428 c 0,2.174 1.772,3.938 3.938,3.938 h 15.092 c 2.166,0 3.938,-1.764 3.938,-3.938 v -42.149 c 2.694,0.276 5.474,0.331 8.184,0.331 16.368,0 30.058,-4.994 38.526,-14.013 6.727,-6.916 10.138,-16.242 10.138,-27.703 0,-11.216 -4.119,-20.952 -11.539,-27.364 z m -36.77,49.081 c -3.387,0 -6.215,-0.165 -8.539,-0.496 v -38.904 c 2.402,-0.315 5.845,-0.551 10.264,-0.551 10.784,0 23.631,3.285 23.631,18.936 0,18.282 -15.896,21.015 -25.356,21.015 z"
     id="path12-0" /></g><path
   inkscape:connector-curvature="0"
   style="fill:#ffffff;stroke-width:1"
   d="m 273.655,353.545 c -9.35223,-3.54994 -12.19559,-6.10189 -12.19559,-10.90958 0,-3.6182 2.78329,-7.84735 10.63728,-7.84735 5.36281,0 9.45882,1.59505 11.95943,2.93032 0.59835,0.31878 1.31272,0.36911 1.94818,0.12323 0.64488,-0.24588 1.14135,-0.75673 1.35925,-1.39429 l 2.44466,-7.11838 c 0.3616,-1.03444 -0.0836,-2.17359 -1.05301,-2.71163 -2.41698,-1.34454 -7.75623,-3.6049 -16.35227,-3.6049 -14.46886,0 -24.57256,8.48085 -24.57256,20.63025 0,9.71141 6.45292,16.67938 19.65087,21.27706 9.60252,3.62283 11.48121,6.89044 11.48121,11.30645 0,5.79237 -4.51357,9.2509 -12.07073,9.2509 -4.99178,0 -10.49358,-1.52215 -14.71504,-4.0741 -0.59835,-0.36911 -1.35925,-0.442 -2.03652,-0.19149 -0.66785,0.25513 -1.18316,0.80186 -1.39165,1.47644 l -2.245,7.31856 c -0.2874,0.96154 0.0836,1.99597 0.93228,2.55658 4.22146,2.76138 11.97768,4.69371 18.84344,4.69371 18.2498,0 26.40944,-10.9142 26.40944,-21.73295 0,-10.34029 -5.69673,-16.916 -19.03367,-21.97883 z"
   id="path16-6" /><path
   inkscape:connector-curvature="0"
   style="fill:#e0e0e0;stroke-width:1"
   d="m 355.78793,324.11512 h -50.93607 c -1.27562,0 -2.31921,1.02055 -2.31921,2.2783 v 7.41923 c 0,1.25775 1.04359,2.2783 2.31921,2.2783 h 18.6114 v 57.88492 c 0,1.25775 1.03476,2.2783 2.31921,2.2783 h 8.9812 c 1.28505,0 2.31921,-1.02055 2.31921,-2.2783 v -57.88492 h 18.70917 c 1.28505,0 2.31921,-1.02055 2.31921,-2.2783 v -7.41923 c -0.004,-1.25775 -1.03829,-2.2783 -2.32333,-2.2783 z"
   id="path18-2" /><path
   inkscape:connector-curvature="0"
   style="fill:#ffffff;stroke-width:1"
   d="m 326.20945,324.11512 h -21.35759 c -1.27562,0 -2.31921,1.02055 -2.31921,2.2783 v 7.41923 c 0,1.25775 1.04359,2.2783 2.31921,2.2783 h 18.6114 v 57.88492 c 0,1.25775 1.03476,2.2783 2.31921,2.2783 h 8.9812 c 1.28505,0 2.31921,-1.02055 2.31921,-2.2783 v -57.88492 h 1.32215 z"
   id="path20-6" /><path
   inkscape:connector-curvature="0"
   style="fill:#e0e0e0;stroke-width:1"
   d="m 398.75398,323.01184 c -20.17972,0 -34.26813,15.53502 -34.26813,37.7742 0,21.5322 13.67086,36.57083 33.24281,36.57083 17.06192,0 34.26813,-11.71201 34.26813,-37.87429 0,-21.81452 -13.35578,-36.47074 -33.24281,-36.47074 z m -0.5106,62.67004 c -13.48063,0 -19.62259,-13.00621 -19.62259,-25.09602 0,-12.89224 6.09543,-25.89845 19.72507,-25.89845 13.48063,0 19.62259,13.0606 19.62259,25.19668 0,12.83728 -6.09544,25.79779 -19.72507,25.79779 z"
   id="path22-1" /><path
   inkscape:connector-curvature="0"
   style="fill:#ffffff;stroke-width:1"
   d="m 364.52295,361.75221 c 0.40813,21.00861 13.93529,35.60466 33.20571,35.60466 0.96938,0 1.94818,-0.0503 2.90873,-0.12323 z"
   id="path24" /><path
   inkscape:connector-curvature="0"
   style="fill:#e0e0e0;stroke-width:1"
   d="m 489.29272,329.81145 c -4.64843,-4.11517 -11.6626,-6.19793 -20.83815,-6.19793 -6.24385,0 -11.94058,0.43738 -17.43295,1.33065 -1.11308,0.18224 -1.93935,1.13452 -1.93935,2.24648 v 66.78001 c 0,1.25775 1.04359,2.2783 2.31921,2.2783 h 8.88815 c 1.27563,0 2.31921,-1.02055 2.31921,-2.2783 v -24.38499 c 1.58658,0.15968 3.22381,0.1915 4.81981,0.1915 9.63963,0 17.7021,-2.88924 22.68916,-8.10712 3.96174,-4.0012 5.97059,-9.39668 5.97059,-16.02736 0,-6.48893 -2.42581,-12.12162 -6.79568,-15.83124 z m -21.655,28.39545 c -1.99471,0 -3.6602,-0.0955 -5.02888,-0.28696 v -22.50762 c 1.41461,-0.18224 3.4423,-0.31878 6.04479,-0.31878 6.35103,0 13.91703,1.90052 13.91703,10.95529 0,10.57691 -9.36165,12.15807 -14.93294,12.15807 z"
   id="path26-8" /><g
   transform="matrix(0.58893112,0,0,0.57854256,222.79785,214.35402)"
   id="g28"
   style="stroke-width:1.7131685" /><g
   transform="matrix(0.58893112,0,0,0.57854256,222.79785,214.35402)"
   id="g30"
   style="stroke-width:1.7131685" /><g
   transform="matrix(0.58893112,0,0,0.57854256,222.79785,214.35402)"
   id="g32"
   style="stroke-width:1.7131685" /><g
   transform="matrix(0.58893112,0,0,0.57854256,222.79785,214.35402)"
   id="g34"
   style="stroke-width:1.7131685" /><g
   transform="matrix(0.58893112,0,0,0.57854256,222.79785,214.35402)"
   id="g36"
   style="stroke-width:1.7131685" /><g
   transform="matrix(0.58893112,0,0,0.57854256,222.79785,214.35402)"
   id="g38"
   style="stroke-width:1.7131685" /><g
   transform="matrix(0.58893112,0,0,0.57854256,222.79785,214.35402)"
   id="g40"
   style="stroke-width:1.7131685" /><g
   transform="matrix(0.58893112,0,0,0.57854256,222.79785,214.35402)"
   id="g42"
   style="stroke-width:1.7131685" /><g
   transform="matrix(0.58893112,0,0,0.57854256,222.79785,214.35402)"
   id="g44"
   style="stroke-width:1.7131685" /><g
   transform="matrix(0.58893112,0,0,0.57854256,222.79785,214.35402)"
   id="g46"
   style="stroke-width:1.7131685" /><g
   transform="matrix(0.58893112,0,0,0.57854256,222.79785,214.35402)"
   id="g48"
   style="stroke-width:1.7131685" /><g
   transform="matrix(0.58893112,0,0,0.57854256,222.79785,214.35402)"
   id="g50"
   style="stroke-width:1.7131685" /><g
   transform="matrix(0.58893112,0,0,0.57854256,222.79785,214.35402)"
   id="g52"
   style="stroke-width:1.7131685" /><g
   transform="matrix(0.58893112,0,0,0.57854256,222.79785,214.35402)"
   id="g54"
   style="stroke-width:1.7131685" /><g
   transform="matrix(0.58893112,0,0,0.57854256,222.79785,214.35402)"
   id="g56"
   style="stroke-width:1.7131685" /></svg>