<?xml version="1.0" encoding="UTF-8" standalone="no"?>
<!-- Generator: Adobe Illustrator 19.0.0, SVG Export Plug-In . SVG Version: 6.00 Build 0)  -->

<svg
   xmlns:dc="http://purl.org/dc/elements/1.1/"
   xmlns:cc="http://creativecommons.org/ns#"
   xmlns:rdf="http://www.w3.org/1999/02/22-rdf-syntax-ns#"
   xmlns:svg="http://www.w3.org/2000/svg"
   xmlns="http://www.w3.org/2000/svg"
   xmlns:sodipodi="http://sodipodi.sourceforge.net/DTD/sodipodi-0.dtd"
   xmlns:inkscape="http://www.inkscape.org/namespaces/inkscape"
   version="1.1"
   id="Layer_1"
   x="0px"
   y="0px"
   viewBox="0 0 489.7 489.7"
   style="enable-background:new 0 0 489.7 489.7;"
   xml:space="preserve"
   sodipodi:docname="allcamera.svg"
   inkscape:version="0.92.4 (5da689c313, 2019-01-14)"><metadata
   id="metadata5166"><rdf:RDF><cc:Work
       rdf:about=""><dc:format>image/svg+xml</dc:format><dc:type
         rdf:resource="http://purl.org/dc/dcmitype/StillImage" /><dc:title /></cc:Work></rdf:RDF></metadata><defs
   id="defs5164" /><sodipodi:namedview
   pagecolor="#ffffff"
   bordercolor="#666666"
   borderopacity="1"
   objecttolerance="10"
   gridtolerance="10"
   guidetolerance="10"
   inkscape:pageopacity="0"
   inkscape:pageshadow="2"
   inkscape:window-width="1024"
   inkscape:window-height="710"
   id="namedview5162"
   showgrid="false"
   inkscape:zoom="2.7261947"
   inkscape:cx="352.09888"
   inkscape:cy="313.90683"
   inkscape:window-x="0"
   inkscape:window-y="0"
   inkscape:window-maximized="1"
   inkscape:current-layer="g5129" />
<g
   id="g5129">
	<g
   id="g5127"
   transform="translate(4.8275286e-8,-2.0750001)">
		<path
   id="XMLID_1284_"
   style="fill:#00ff00"
   d="m 17.1,357.45 113.925,8.3 c 4.38837,0.31971 -97.887513,35.86461 -93.575002,37.15 L 132.9,431.35 c 4.21668,1.25683 -3.6,8.1 -8.1,8.1 H 17.1 c -4.4,0 -8.1,-3.6 -8.1,-8.1 v -65.8 c 0,-4.5 3.711631,-8.41971 8.1,-8.1 z"
   inkscape:connector-curvature="0"
   sodipodi:nodetypes="sssssssss" />
		<path
   id="XMLID_1282_"
   style="fill:#00ff00"
   d="M 192.775,349.15 302.55,369.9 c 4.32344,0.81723 -91.61759,31.57251 -87.35,33 l 78.85,26.375 c 4.17274,1.39577 10.925,1.875 6.425,1.875 h -107.7 c -4.4,0 -8.1,-3.6 -8.1,-8.1 v -65.8 c 0.1,-4.5 3.77656,-8.91723 8.1,-8.1 z"
   inkscape:connector-curvature="0"
   sodipodi:nodetypes="ssssssscs" />
		<path
   d="m 116.6,448.45 c 14,0 25.3,-11.4 25.3,-25.3 v -49.4 c 0,-14 -11.4,-25.3 -25.3,-25.3 H 80 v -67.8 h 155.8 v 67.8 h -36.6 c -14,0 -25.3,11.4 -25.3,25.3 v 49.4 c 0,14 11.4,25.3 25.3,25.3 h 91.3 c 14,0 25.3,-11.4 25.3,-25.3 v -49.4 c 0,-14 -11.4,-25.3 -25.3,-25.3 h -36.6 v -67.8 h 155.8 v 67.8 h -36.6 c -14,0 -25.3,11.4 -25.3,25.3 v 49.4 c 0,14 11.4,25.3 25.3,25.3 h 91.3 c 14,0 25.3,-11.4 25.3,-25.3 v -49.4 c 0,-14 -11.4,-25.3 -25.3,-25.3 h -36.5 v -76.8 c 0,-5 -4.1,-9.1 -9.1,-9.1 H 254 v -47.3 h 74 c 18.3,0 33.2,-14.9 33.2,-33.2 V 74.45 c 0,-18.3 -14.9,-33.2 -33.2,-33.2 H 161.8 c -18.3,0 -33.2,14.9 -33.2,33.2 v 107.5 c 0,18.3 14.9,33.2 33.2,33.2 h 74 v 47.3 H 70.9 c -5,0 -9.1,4.1 -9.1,9.1 v 76.8 H 25.3 c -14,0 -25.3,11.4 -25.3,25.3 v 49.4 c 0,14 11.4,25.3 25.3,25.3 h 91.3 c 0,0 0,0.1 0,0.1 z m 181.1,-74.7 v 49.4 c 0,4 -3.2,7.2 -7.2,7.2 h -91.3 c -4,0 -7.2,-3.2 -7.2,-7.2 v -49.4 c 0,-4 3.2,-7.2 7.2,-7.2 h 91.3 c 4,-0.1 7.2,3.2 7.2,7.2 z m 174,0 v 49.4 c 0,4 -3.2,7.2 -7.2,7.2 h -91.3 c -4,0 -7.2,-3.2 -7.2,-7.2 v -49.4 c 0,-4 3.2,-7.2 7.2,-7.2 h 91.3 c 4,-0.1 7.2,3.2 7.2,7.2 z m -325,-191.8 V 74.45 c 0,-8.3 6.8,-15.1 15.1,-15.1 H 328 c 8.3,0 15.1,6.8 15.1,15.1 v 107.5 c 0,8.3 -6.8,15.1 -15.1,15.1 H 161.8 c -8.3,0 -15.1,-6.8 -15.1,-15.1 z M 18.1,423.15 v -49.4 c 0,-4 3.2,-7.2 7.2,-7.2 h 91.3 c 4,0 7.2,3.2 7.2,7.2 v 49.4 c 0,4 -3.2,7.2 -7.2,7.2 H 25.3 c -4,0 -7.2,-3.2 -7.2,-7.2 z"
   id="path5125"
   inkscape:connector-curvature="0" />
	</g>
<path
   id="XMLID_1282_-0"
   style="fill:#00ff00;stroke-width:0.8098498"
   d="m 372.72911,365.05001 101.84178,-2.075 C 510.7266,362.23835 384.0278,400.50427 381.85,400.35528 l 89.225,21.76446 c 3.30114,0.80524 -3.05739,6.25527 -6.87911,6.25527 h -91.46678 c -3.7368,0 -6.87911,-2.78012 -6.87911,-6.25527 v -50.81446 c 0.0849,-3.47515 3.14309,-6.17915 6.87911,-6.25527 z"
   inkscape:connector-curvature="0"
   sodipodi:nodetypes="sscsssscs" /><path
   inkscape:connector-curvature="0"
   style="fill:#5c6a6d;stroke-width:0.66379821"
   d="m 270.35405,248.11645 c 0,5.47059 -3.89729,9.90964 -8.702,9.90964 h -39.4291 c -4.80409,0 -8.702,-4.43905 -8.702,-9.90964 v 0 c 0,-5.4649 3.89729,-9.90395 8.702,-9.90395 h 39.42972 c 4.80409,0 8.70138,4.43905 8.70138,9.90395 z"
   id="path6" /><path
   inkscape:connector-curvature="0"
   style="fill:#495354;stroke-width:0.66379821"
   d="m 264.85851,264.1105 c 0,4.41711 -3.15231,7.99737 -7.02035,7.99737 h -31.8063 c -3.86804,0 -7.02035,-3.58026 -7.02035,-7.99737 v 0 c 0,-4.41144 3.15231,-7.99171 7.02035,-7.99171 h 31.8063 c 3.86804,0.008 7.02035,3.58096 7.02035,7.99171 z"
   id="path8" /><rect
   x="345.41455"
   y="115.2565"
   style="fill:#68767a;stroke-width:0.66379821"
   width="21.085331"
   height="99.075752"
   id="rect10" /><polygon
   transform="matrix(0.62237166,0,0,0.70798232,110.83709,28.597342)"
   style="fill:#566566"
   points="466.013,288.835 408.566,262.321 408.566,122.38 466.013,95.866 "
   id="polygon12" /><polygon
   transform="matrix(0.62237166,0,0,0.70798232,110.83709,28.597342)"
   style="fill:#00ff00"
   points="466.013,288.835 408.566,235.808 408.566,148.894 466.013,95.866 "
   id="polygon14" /><rect
   x="342.20312"
   y="131.40698"
   style="fill:#5c6a6d;stroke-width:0.66379821"
   width="21.085331"
   height="66.747864"
   id="rect16" /><path
   inkscape:connector-curvature="0"
   style="fill:#222e33;stroke-width:0.76507026"
   d="m 363.28845,211.37662 c 0,16.7435 -9.92196,30.31431 -22.14668,30.31431 h -191.0207 c -12.23518,0 -22.14668,-13.57081 -22.14668,-30.31431 V 67.419648 c 0,-16.73634 9.9115,-30.299981 22.14668,-30.299981 h 191.02004 c 12.22472,0 22.14668,13.563641 22.14668,30.299981 V 211.37662 Z"
   id="path18" /><path
   inkscape:connector-curvature="0"
   style="fill:#00ff00;stroke-width:0.67900145"
   d="m 129.97501,107.834 c 0,-13.239246 9.86905,-23.968736 22.05183,-23.968736 h 190.20192 c 12.17236,0 22.05183,10.72949 22.05183,23.968736"
   id="path20" /><path
   inkscape:connector-curvature="0"
   style="fill:#566566;stroke-width:0.66379821;fill-opacity:1"
   d="m 405.44917,233.60638 c 0,2.1636 -1.52979,3.90947 -3.43675,3.90947 v 0 c -1.89699,0 -3.43672,-1.74517 -3.43672,-3.90947 V 95.950541 c 0,-2.163604 1.53912,-3.909498 3.43672,-3.909498 v 0 c 1.90696,0 3.43675,1.745195 3.43675,3.909498 z"
   id="path22" /><ellipse
   style="fill:#fc4799;stroke-width:0.66379821"
   cx="317.10352"
   cy="164.77846"
   id="circle24"
   rx="8.593708"
   ry="9.7758188" /><path
   inkscape:connector-curvature="0"
   style="fill:#dd1969;stroke-width:0.66379821"
   d="m 311.02915,157.86853 c 3.35334,-3.82026 8.78975,-3.82026 12.15306,0 3.35334,3.82027 3.35334,10.01016 0,13.82479"
   id="path26" /><g
   transform="matrix(0.62237166,0,0,0.70798232,110.83709,28.597342)"
   id="g48" /><g
   transform="matrix(0.62237166,0,0,0.70798232,110.83709,28.597342)"
   id="g50" /><g
   transform="matrix(0.62237166,0,0,0.70798232,110.83709,28.597342)"
   id="g52" /><g
   transform="matrix(0.62237166,0,0,0.70798232,110.83709,28.597342)"
   id="g54" /><g
   transform="matrix(0.62237166,0,0,0.70798232,110.83709,28.597342)"
   id="g56" /><g
   transform="matrix(0.62237166,0,0,0.70798232,110.83709,28.597342)"
   id="g58" /><g
   transform="matrix(0.62237166,0,0,0.70798232,110.83709,28.597342)"
   id="g60" /><g
   transform="matrix(0.62237166,0,0,0.70798232,110.83709,28.597342)"
   id="g62" /><g
   transform="matrix(0.62237166,0,0,0.70798232,110.83709,28.597342)"
   id="g64" /><g
   transform="matrix(0.62237166,0,0,0.70798232,110.83709,28.597342)"
   id="g66" /><g
   transform="matrix(0.62237166,0,0,0.70798232,110.83709,28.597342)"
   id="g68" /><g
   transform="matrix(0.62237166,0,0,0.70798232,110.83709,28.597342)"
   id="g70" /><g
   transform="matrix(0.62237166,0,0,0.70798232,110.83709,28.597342)"
   id="g72" /><g
   transform="matrix(0.62237166,0,0,0.70798232,110.83709,28.597342)"
   id="g74" /><g
   transform="matrix(0.62237166,0,0,0.70798232,110.83709,28.597342)"
   id="g76" /></g>
<g
   id="g5131">
</g>
<g
   id="g5133">
</g>
<g
   id="g5135">
</g>
<g
   id="g5137">
</g>
<g
   id="g5139">
</g>
<g
   id="g5141">
</g>
<g
   id="g5143">
</g>
<g
   id="g5145">
</g>
<g
   id="g5147">
</g>
<g
   id="g5149">
</g>
<g
   id="g5151">
</g>
<g
   id="g5153">
</g>
<g
   id="g5155">
</g>
<g
   id="g5157">
</g>
<g
   id="g5159">
</g>
</svg>