<?xml version="1.0" encoding="UTF-8" standalone="no"?>
<!-- Generator: Adobe Illustrator 19.0.0, SVG Export Plug-In . SVG Version: 6.00 Build 0)  -->

<svg
   xmlns:dc="http://purl.org/dc/elements/1.1/"
   xmlns:cc="http://creativecommons.org/ns#"
   xmlns:rdf="http://www.w3.org/1999/02/22-rdf-syntax-ns#"
   xmlns:svg="http://www.w3.org/2000/svg"
   xmlns="http://www.w3.org/2000/svg"
   xmlns:sodipodi="http://sodipodi.sourceforge.net/DTD/sodipodi-0.dtd"
   xmlns:inkscape="http://www.inkscape.org/namespaces/inkscape"
   version="1.1"
   id="Layer_1"
   x="0px"
   y="0px"
   viewBox="0 0 504.119 504.119"
   style="enable-background:new 0 0 504.119 504.119;"
   xml:space="preserve"
   sodipodi:docname="stopvideo.svg"
   inkscape:version="0.92.4 (5da689c313, 2019-01-14)"><metadata
   id="metadata83"><rdf:RDF><cc:Work
       rdf:about=""><dc:format>image/svg+xml</dc:format><dc:type
         rdf:resource="http://purl.org/dc/dcmitype/StillImage" /><dc:title /></cc:Work></rdf:RDF></metadata><defs
   id="defs81" /><sodipodi:namedview
   pagecolor="#ffffff"
   bordercolor="#666666"
   borderopacity="1"
   objecttolerance="10"
   gridtolerance="10"
   guidetolerance="10"
   inkscape:pageopacity="0"
   inkscape:pageshadow="2"
   inkscape:window-width="1024"
   inkscape:window-height="710"
   id="namedview79"
   showgrid="false"
   inkscape:zoom="0.46814345"
   inkscape:cx="252.05949"
   inkscape:cy="252.05949"
   inkscape:window-x="0"
   inkscape:window-y="0"
   inkscape:window-maximized="1"
   inkscape:current-layer="Layer_1" />
<path
   d="M85.014,450.934c-4.742,4.75-12.43,4.758-17.187,0l0,0c-4.742-4.75-4.742-12.422,0-17.187l106.252-106.228  c4.758-4.75,12.43-4.75,17.187,0l0,0c4.758,4.75,4.758,12.438,0,17.18L85.014,450.934z"
   id="path2" />
<path
   d="M336.272,450.934c4.758,4.75,12.43,4.758,17.187,0l0,0c4.742-4.75,4.742-12.422,0-17.187L247.231,327.519  c-4.766-4.75-12.446-4.75-17.203,0l0,0c-4.758,4.75-4.758,12.438,0,17.18L336.272,450.934z"
   id="path4" />
<path
   style="fill:#5C6A6D;"
   d="M256.305,310.063c0,7.727-6.262,13.997-13.982,13.997H178.97c-7.719,0-13.982-6.27-13.982-13.997l0,0  c0-7.719,6.262-13.989,13.982-13.989h63.354C250.043,296.074,256.305,302.344,256.305,310.063L256.305,310.063z"
   id="path6" />
<path
   style="fill:#495354;"
   d="M247.475,332.654c0,6.239-5.065,11.296-11.28,11.296H185.09c-6.215,0-11.28-5.057-11.28-11.296l0,0  c0-6.231,5.065-11.288,11.28-11.288h51.105C242.41,321.375,247.475,326.424,247.475,332.654L247.475,332.654z"
   id="path8" />
<rect
   x="376.909"
   y="122.403"
   style="fill:#68767A;"
   width="33.879"
   height="139.941"
   id="rect10" />
<polygon
   style="fill:#566566;"
   points="466.013,288.835 408.566,262.321 408.566,122.38 466.013,95.866 "
   id="polygon12" />
<polygon
   style="fill:#4F5C5E;"
   points="466.013,288.835 408.566,235.808 408.566,148.894 466.013,95.866 "
   id="polygon14" />
<rect
   x="371.749"
   y="145.215"
   style="fill:#5C6A6D;"
   width="33.879"
   height="94.279"
   id="rect16" />
<path
   style="fill:#222E33;"
   d="M390.552,272.766c0,18.708-15.171,33.871-33.863,33.871H64.612  c-18.708,0-33.863-15.163-33.863-33.871V111.919c0-18.7,15.155-33.855,33.863-33.855h292.076c18.692,0,33.863,15.155,33.863,33.855  V272.766z"
   id="path18" />
<path
   style="fill:#344247;"
   d="M30.75,111.919c0-18.7,15.155-33.855,33.863-33.855h292.076c18.692,0,33.863,15.155,33.863,33.855"
   id="path20" />
<path
   style="fill:#5C6A6D;"
   d="M473.37,289.568c0,3.056-2.458,5.522-5.522,5.522l0,0c-3.048,0-5.522-2.465-5.522-5.522V95.134  c0-3.056,2.473-5.522,5.522-5.522l0,0c3.064,0,5.522,2.465,5.522,5.522V289.568z"
   id="path22" />
<circle
   style="fill:#FC4799;"
   cx="331.42"
   cy="192.351"
   r="13.808"
   id="circle24" />
<path
   style="fill:#DD1969;"
   d="M321.66,182.591c5.388-5.396,14.123-5.396,19.527,0c5.388,5.396,5.388,14.139,0,19.527"
   id="path26" />
<g
   id="g38">
	<path
   style="fill:#68767A;"
   d="M95.569,228.679c0,1.82-1.489,3.308-3.324,3.308H59.847c-1.827,0-3.324-1.481-3.324-3.308l0,0   c0-1.827,1.489-3.316,3.324-3.316h32.398C94.072,225.363,95.569,226.851,95.569,228.679L95.569,228.679z"
   id="path28" />
	<path
   style="fill:#68767A;"
   d="M95.569,244.141c0,1.827-1.489,3.316-3.324,3.316H59.847c-1.827,0-3.324-1.481-3.324-3.316l0,0   c0-1.827,1.489-3.316,3.324-3.316h32.398C94.072,240.825,95.569,242.314,95.569,244.141L95.569,244.141z"
   id="path30" />
	<path
   style="fill:#68767A;"
   d="M95.569,259.612c0,1.82-1.489,3.316-3.324,3.316H59.847c-1.827,0-3.324-1.489-3.324-3.316l0,0   c0-1.827,1.489-3.316,3.324-3.316h32.398C94.072,256.295,95.569,257.784,95.569,259.612L95.569,259.612z"
   id="path32" />
	<path
   style="fill:#68767A;"
   d="M95.569,275.074c0,1.827-1.489,3.316-3.324,3.316H59.847c-1.827,0-3.324-1.481-3.324-3.316l0,0   c0-1.82,1.489-3.316,3.324-3.316h32.398C94.072,271.758,95.569,273.247,95.569,275.074L95.569,275.074z"
   id="path34" />
	<circle
   style="fill:#68767A;"
   cx="122.405"
   cy="67.659"
   r="67.647"
   id="circle36" />
</g>
<path
   style="fill:#5C6A6D;"
   d="M74.545,19.814c26.419-26.419,69.254-26.419,95.673,0c26.427,26.419,26.427,69.262,0,95.673"
   id="path40" />
<circle
   style="fill:#68767A;"
   cx="257.573"
   cy="67.659"
   r="67.655"
   id="circle42" />
<path
   style="fill:#5C6A6D;"
   d="M209.784,19.814c26.419-26.419,69.246-26.419,95.665,0c26.427,26.419,26.427,69.262,0,95.673"
   id="path44" />
<path
   style="fill:#222E33;"
   d="M222.797,491.965c0,6.719-5.443,12.154-12.154,12.154l0,0c-6.711,0-12.154-5.435-12.154-12.154  V341.728c0-6.727,5.443-12.154,12.154-12.154l0,0c6.711,0,12.154,5.427,12.154,12.154V491.965z"
   id="path46" />
<g
   id="g48">
</g>
<g
   id="g50">
</g>
<g
   id="g52">
</g>
<g
   id="g54">
</g>
<g
   id="g56">
</g>
<g
   id="g58">
</g>
<g
   id="g60">
</g>
<g
   id="g62">
</g>
<g
   id="g64">
</g>
<g
   id="g66">
</g>
<g
   id="g68">
</g>
<g
   id="g70">
</g>
<g
   id="g72">
</g>
<g
   id="g74">
</g>
<g
   id="g76">
</g>
<text
   xml:space="preserve"
   style="font-style:normal;font-weight:normal;font-size:161.18737793px;line-height:1.25;font-family:sans-serif;letter-spacing:0px;word-spacing:0px;fill:#000000;fill-opacity:1;stroke:none;stroke-width:4.02968454"
   x="33.075531"
   y="220.55591"
   id="text87"
   transform="scale(0.76956121,1.2994418)"><tspan
     sodipodi:role="line"
     id="tspan85"
     x="33.075531"
     y="220.55591"
     style="font-style:normal;font-variant:normal;font-weight:bold;font-stretch:normal;font-family:sans-serif;-inkscape-font-specification:'sans-serif Bold';fill:#ff0000;stroke-width:4.02968454">STOP</tspan></text>

</svg>