<?xml version="1.0" encoding="UTF-8" standalone="no"?>
<!-- Generator: Adobe Illustrator 19.0.0, SVG Export Plug-In . SVG Version: 6.00 Build 0)  -->

<svg
   version="1.1"
   id="Layer_1"
   x="0px"
   y="0px"
   viewBox="0 0 495 495"
   style="enable-background:new 0 0 495 495;"
   xml:space="preserve"
   sodipodi:docname="liste1.svg"
   inkscape:version="1.2.2 (b0a8486541, 2022-12-01)"
   xmlns:inkscape="http://www.inkscape.org/namespaces/inkscape"
   xmlns:sodipodi="http://sodipodi.sourceforge.net/DTD/sodipodi-0.dtd"
   xmlns="http://www.w3.org/2000/svg"
   xmlns:svg="http://www.w3.org/2000/svg"
   xmlns:rdf="http://www.w3.org/1999/02/22-rdf-syntax-ns#"
   xmlns:cc="http://creativecommons.org/ns#"
   xmlns:dc="http://purl.org/dc/elements/1.1/"><metadata
   id="metadata59"><rdf:RDF><cc:Work
       rdf:about=""><dc:format>image/svg+xml</dc:format><dc:type
         rdf:resource="http://purl.org/dc/dcmitype/StillImage" /><dc:title /></cc:Work></rdf:RDF></metadata><defs
   id="defs57" /><sodipodi:namedview
   pagecolor="#ffffff"
   bordercolor="#666666"
   borderopacity="1"
   objecttolerance="10"
   gridtolerance="10"
   guidetolerance="10"
   inkscape:pageopacity="0"
   inkscape:pageshadow="2"
   inkscape:window-width="1366"
   inkscape:window-height="667"
   id="namedview55"
   showgrid="false"
   inkscape:zoom="0.47676768"
   inkscape:cx="-235.96398"
   inkscape:cy="249.59746"
   inkscape:window-x="0"
   inkscape:window-y="0"
   inkscape:window-maximized="1"
   inkscape:current-layer="Layer_1"
   inkscape:showpageshadow="2"
   inkscape:pagecheckerboard="0"
   inkscape:deskcolor="#d1d1d1" />
<g
   id="g22"
   style="fill:#ffffff;fill-opacity:1">
	<rect
   x="343.33"
   y="191.67"
   style="fill:#ffffff;stroke:#000000;stroke-opacity:1;stroke-width:6;stroke-miterlimit:4;stroke-dasharray:none;fill-opacity:1"
   width="111.67"
   height="111.66"
   id="rect2" />
	<rect
   x="191.67"
   y="343.33"
   style="fill:#ffffff;stroke:#000000;stroke-opacity:1;stroke-width:6;stroke-miterlimit:4;stroke-dasharray:none;fill-opacity:1"
   width="111.66"
   height="111.67"
   id="rect4" />
	<rect
   x="191.67"
   y="40"
   style="fill:#ffffff;stroke:#000000;stroke-opacity:1;stroke-width:6;stroke-miterlimit:4;stroke-dasharray:none;fill-opacity:1"
   width="111.66"
   height="111.67"
   id="rect6" />
	<rect
   x="40"
   y="191.67"
   style="fill:#ffffff;stroke:#000000;stroke-opacity:1;stroke-width:6;stroke-miterlimit:4;stroke-dasharray:none;fill-opacity:1"
   width="111.67"
   height="111.66"
   id="rect8" />
	<rect
   x="343.33"
   y="343.33"
   style="fill:#ffffff;stroke:#000000;stroke-opacity:1;stroke-width:6;stroke-miterlimit:4;stroke-dasharray:none;fill-opacity:1"
   width="111.67"
   height="111.67"
   id="rect10" />
	<rect
   x="40"
   y="343.33"
   style="fill:#ffffff;stroke:#000000;stroke-opacity:1;stroke-width:6;stroke-miterlimit:4;stroke-dasharray:none;fill-opacity:1"
   width="111.67"
   height="111.67"
   id="rect12" />
	<rect
   x="191.67"
   y="191.67"
   style="fill:#ffffff;stroke:#000000;stroke-opacity:1;stroke-width:6;stroke-miterlimit:4;stroke-dasharray:none;fill-opacity:1"
   width="111.66"
   height="111.66"
   id="rect14" />
	<rect
   x="343.33"
   y="40"
   style="fill:#ffffff;stroke:#000000;stroke-opacity:1;stroke-width:6;stroke-miterlimit:4;stroke-dasharray:none;fill-opacity:1"
   width="111.67"
   height="111.67"
   id="rect16" />
	<rect
   x="40"
   y="40"
   style="fill:#ffffff;stroke:#000000;stroke-opacity:1;stroke-width:6;stroke-miterlimit:4;stroke-dasharray:none;fill-opacity:1"
   width="111.67"
   height="111.67"
   id="rect18" />
	<path
   style="fill:#ffffff;stroke:#000072;stroke-opacity:1;stroke-width:6;stroke-miterlimit:4;stroke-dasharray:none;fill-opacity:1"
   d="M0,0v495h495V0H0z M151.67,455H40V343.33h111.67V455z M151.67,303.33H40V191.67h111.67V303.33z    M151.67,151.67H40V40h111.67V151.67z M303.33,455H191.67V343.33h111.66V455z M303.33,303.33H191.67V191.67h111.66V303.33z    M303.33,151.67H191.67V40h111.66V151.67z M455,455H343.33V343.33H455V455z M455,303.33H343.33V191.67H455V303.33z M455,151.67   H343.33V40H455V151.67z"
   id="path20" />
</g>
<g
   id="g24">
</g>
<g
   id="g26">
</g>
<g
   id="g28">
</g>
<g
   id="g30">
</g>
<g
   id="g32">
</g>
<g
   id="g34">
</g>
<g
   id="g36">
</g>
<g
   id="g38">
</g>
<g
   id="g40">
</g>
<g
   id="g42">
</g>
<g
   id="g44">
</g>
<g
   id="g46">
</g>
<g
   id="g48">
</g>
<g
   id="g50">
</g>
<g
   id="g52">
</g>
<g
   id="g202"
   transform="matrix(0.72215189,0,0,0.72497679,97.444627,97.609962)"
   style="opacity:0.77357238">
	<path
   style="fill:#2488ff"
   d="m 214.321,366.664 c -80.987,0 -146.874,-65.887 -146.874,-146.874 h -40 c 0,103.042 83.832,186.874 186.874,186.874 30.084,0 59.991,-7.324 86.488,-21.181 18.772,-9.816 35.861,-22.917 50.335,-38.451 L 322.78,318.804 c -27.667,30.224 -67.097,47.86 -108.459,47.86 z"
   id="path192" />
	<polygon
   style="fill:#2488ff"
   points="419.58,233.66 328.63,324.62 419.58,415.14 "
   id="polygon194" />
	<polygon
   style="fill:#005ece"
   points="419.58,233.66 237.23,233.66 328.63,324.62 "
   id="polygon196" />
	<path
   style="fill:#2488ff"
   d="m 96.801,100.774 c 27.667,-30.222 67.097,-47.858 108.458,-47.858 80.987,0 146.874,65.887 146.874,146.874 h 40 c 0,-103.042 -83.832,-186.874 -186.874,-186.874 -30.084,0 -59.991,7.324 -86.488,21.181 C 100,43.913 82.911,57.013 68.438,72.546 L 90.96,94.96 0,185.92 h 182.35 z"
   id="path198" />
	<polygon
   style="fill:#005ece"
   points="90.96,94.96 68.437,72.546 0,4.44 0,185.92 "
   id="polygon200" />
</g></svg>
