<?xml version="1.0" encoding="UTF-8" standalone="no"?>
<!-- Generator: Adobe Illustrator 19.0.0, SVG Export Plug-In . SVG Version: 6.00 Build 0)  -->

<svg
   xmlns:dc="http://purl.org/dc/elements/1.1/"
   xmlns:cc="http://creativecommons.org/ns#"
   xmlns:rdf="http://www.w3.org/1999/02/22-rdf-syntax-ns#"
   xmlns:svg="http://www.w3.org/2000/svg"
   xmlns="http://www.w3.org/2000/svg"
   xmlns:sodipodi="http://sodipodi.sourceforge.net/DTD/sodipodi-0.dtd"
   xmlns:inkscape="http://www.inkscape.org/namespaces/inkscape"
   version="1.1"
   id="Layer_1"
   x="0px"
   y="0px"
   viewBox="0 0 489.7 489.7"
   style="enable-background:new 0 0 489.7 489.7;"
   xml:space="preserve"
   sodipodi:docname="networkvncstop.svg"
   inkscape:version="0.92.4 (5da689c313, 2019-01-14)"><metadata
   id="metadata5166"><rdf:RDF><cc:Work
       rdf:about=""><dc:format>image/svg+xml</dc:format><dc:type
         rdf:resource="http://purl.org/dc/dcmitype/StillImage" /><dc:title></dc:title></cc:Work></rdf:RDF></metadata><defs
   id="defs5164" /><sodipodi:namedview
   pagecolor="#ffffff"
   bordercolor="#666666"
   borderopacity="1"
   objecttolerance="10"
   gridtolerance="10"
   guidetolerance="10"
   inkscape:pageopacity="0"
   inkscape:pageshadow="2"
   inkscape:window-width="1024"
   inkscape:window-height="710"
   id="namedview5162"
   showgrid="false"
   inkscape:zoom="0.4819277"
   inkscape:cx="208.53751"
   inkscape:cy="244.85001"
   inkscape:window-x="0"
   inkscape:window-y="0"
   inkscape:window-maximized="1"
   inkscape:current-layer="g5129" />
<g
   id="g5129">
	<g
   id="g5127"
   transform="matrix(1,0,0,1.1732564,4.8275286e-8,-44.496827)"
   style="stroke-width:0.92321646">
		<path
   id="XMLID_1284_"
   style="fill:#00ff00;stroke-width:0.92321646"
   d="m 17.1,357.45 h 107.7 c 4.4,0 8.1,3.6 8.1,8.1 v 65.8 c 0,4.4 -3.6,8.1 -8.1,8.1 H 17.1 c -4.4,0 -8.1,-3.6 -8.1,-8.1 v -65.8 c 0,-4.5 3.7,-8.1 8.1,-8.1 z"
   inkscape:connector-curvature="0" />
		<path
   id="XMLID_1282_"
   style="fill:#ffffff;stroke-width:0.92321646"
   d="m 192.775,349.15 h 107.7 c 4.4,0 8.1,3.6 8.1,8.1 v 65.8 c 0,4.4 -3.6,8.1 -8.1,8.1 h -107.7 c -4.4,0 -8.1,-3.6 -8.1,-8.1 v -65.8 c 0.1,-4.5 3.7,-8.1 8.1,-8.1 z"
   inkscape:connector-curvature="0" />
		<path
   d="m 116.6,448.45 c 14,0 25.3,-11.4 25.3,-25.3 v -49.4 c 0,-14 -11.4,-25.3 -25.3,-25.3 H 80 v -67.8 h 155.8 v 67.8 h -36.6 c -14,0 -25.3,11.4 -25.3,25.3 v 49.4 c 0,14 11.4,25.3 25.3,25.3 h 91.3 c 14,0 25.3,-11.4 25.3,-25.3 v -49.4 c 0,-14 -11.4,-25.3 -25.3,-25.3 h -36.6 v -67.8 h 155.8 v 67.8 h -36.6 c -14,0 -25.3,11.4 -25.3,25.3 v 49.4 c 0,14 11.4,25.3 25.3,25.3 h 91.3 c 14,0 25.3,-11.4 25.3,-25.3 v -49.4 c 0,-14 -11.4,-25.3 -25.3,-25.3 h -36.5 v -76.8 c 0,-5 -4.1,-9.1 -9.1,-9.1 H 254 v -47.3 h 74 c 18.3,0 33.2,-14.9 33.2,-33.2 V 74.45 c 0,-18.3 -14.9,-33.2 -33.2,-33.2 H 161.8 c -18.3,0 -33.2,14.9 -33.2,33.2 v 107.5 c 0,18.3 14.9,33.2 33.2,33.2 h 74 v 47.3 H 70.9 c -5,0 -9.1,4.1 -9.1,9.1 v 76.8 H 25.3 c -14,0 -25.3,11.4 -25.3,25.3 v 49.4 c 0,14 11.4,25.3 25.3,25.3 h 91.3 c 0,0 0,0.1 0,0.1 z m 181.1,-74.7 v 49.4 c 0,4 -3.2,7.2 -7.2,7.2 h -91.3 c -4,0 -7.2,-3.2 -7.2,-7.2 v -49.4 c 0,-4 3.2,-7.2 7.2,-7.2 h 91.3 c 4,-0.1 7.2,3.2 7.2,7.2 z m 174,0 v 49.4 c 0,4 -3.2,7.2 -7.2,7.2 h -91.3 c -4,0 -7.2,-3.2 -7.2,-7.2 v -49.4 c 0,-4 3.2,-7.2 7.2,-7.2 h 91.3 c 4,-0.1 7.2,3.2 7.2,7.2 z m -325,-191.8 V 74.45 c 0,-8.3 6.8,-15.1 15.1,-15.1 H 328 c 8.3,0 15.1,6.8 15.1,15.1 v 107.5 c 0,8.3 -6.8,15.1 -15.1,15.1 H 161.8 c -8.3,0 -15.1,-6.8 -15.1,-15.1 z M 18.1,423.15 v -49.4 c 0,-4 3.2,-7.2 7.2,-7.2 h 91.3 c 4,0 7.2,3.2 7.2,7.2 v 49.4 c 0,4 -3.2,7.2 -7.2,7.2 H 25.3 c -4,0 -7.2,-3.2 -7.2,-7.2 z"
   id="path5125"
   inkscape:connector-curvature="0"
   style="stroke-width:0.92321646" />
	</g>
<path
   id="XMLID_1282_-0"
   style="fill:#00ff00;stroke-width:0.8098498"
   d="m 372.72911,381.65001 h 91.46678 c 3.7368,0 6.87911,3.41781 6.87911,7.69006 v 62.46989 c 0,4.17731 -3.05739,7.69005 -6.87911,7.69005 h -91.46678 c -3.7368,0 -6.87911,-3.4178 -6.87911,-7.69005 v -62.46989 c 0.0849,-4.27225 3.14231,-7.69006 6.87911,-7.69006 z"
   inkscape:connector-curvature="0" /><path
   inkscape:connector-curvature="0"
   style="fill:#3e9ade;fill-rule:evenodd;stroke:none;stroke-width:4.9402442px;stroke-linecap:butt;stroke-linejoin:miter;stroke-opacity:1"
   d="M 196.06726,138.08624 H 169.1558 V 88.333477 c 0,0 -0.44852,-37.729171 41.71276,-37.729171 42.16128,0 41.26423,37.729171 41.26423,37.729171 V 138.08624 H 227.01543 V 123.66977 88.333477 c 0,0 -1.7941,-15.340436 -15.69834,-15.340436 -13.90425,0 -15.24983,15.340436 -15.24983,15.340436 z"
   id="path2303"
   sodipodi:nodetypes="cccscccccscc" /><path
   inkscape:connector-curvature="0"
   style="fill:#66cc33;fill-rule:evenodd;stroke:none;stroke-width:4.9402442px;stroke-linecap:butt;stroke-linejoin:miter;stroke-opacity:1"
   d="m 335.78258,113.57601 v 23.8889 H 292.9283 c 0,0 -36.30366,1.34118 -36.30366,-42.055696 0,-43.396861 36.30366,-43.353039 36.30366,-43.353039 h 42.85428 l -0.31717,24.973941 H 323.04785 292.9283 c 0,0 -13.21338,2.726183 -13.21338,17.037922 0,14.311742 13.21338,19.507972 13.21338,19.507972 z"
   id="path3277"
   sodipodi:nodetypes="cccscccccscc" /><path
   inkscape:connector-curvature="0"
   style="display:inline;fill:#ff0000;fill-opacity:1;fill-rule:evenodd;stroke:none;stroke-width:4.9402442px;stroke-linecap:butt;stroke-linejoin:miter;stroke-opacity:1"
   d="m 144.03844,38.166117 h 68.1757 v 5.389874 h -13.00721 c 0,0 -6.72786,1.243823 -3.58819,9.121341 3.13966,7.87753 34.98489,78.360588 34.98489,78.360588 l 1.78604,-0.44238 34.54443,-70.869904 c 0,0 5.20203,-16.173872 -1.79411,-16.169645 -15.66613,0.0099 0,0 -15.24982,0 -2.24262,0 -1.54784,-5.339778 -1.54784,-5.339778 h 48.64289 v 5.339778 c 0,0 -9.86754,-0.829204 -16.5954,9.950556 -8.52019,13.651509 -60.10225,120.650433 -60.10225,120.650433 h -5.24601 L 157.9427,51.018914 c -3.5882,-8.292127 -13.58555,-7.462923 -13.58555,-7.462923 z"
   id="path2300"
   sodipodi:nodetypes="ccccscccsscccsccccc" /><path
   inkscape:connector-curvature="0"
   style="fill:#3e9ade;fill-rule:evenodd;stroke:none;stroke-width:4.9402442px;stroke-linecap:butt;stroke-linejoin:miter;stroke-opacity:1"
   d="m 213.59287,50.604306 c -45.40164,0 -44.43566,37.729171 -44.43566,37.729171 v 49.752763 h 27.0478 V 123.66977 88.333477 c 0,0 1.93199,-15.340436 16.90488,-15.340436 m 0,0 c -0.83101,0.909912 0.36692,-0.801849 0.48298,-22.388735"
   id="path3275"
   sodipodi:nodetypes="ccccccccc" /><rect
   style="fill:#3e9ade;fill-opacity:1;stroke:none;stroke-width:2.4701221;stroke-linecap:square;stroke-linejoin:bevel;stroke-miterlimit:22.80000114;stroke-dasharray:none;stroke-opacity:1"
   id="rect3282"
   width="95.087143"
   height="17.82807"
   x="240.91971"
   y="149.69521" /><g
   transform="matrix(0.49207849,0,0,0.49470667,237.55622,118.10451)"
   id="g93"
   style="stroke-width:2.02679086"><path
     inkscape:connector-curvature="0"
     id="path2"
     d="M 497.16,140.694 363.425,6.967 C 358.967,2.509 352.925,0.004 346.631,0.004 H 157.499 c -6.309,0 -12.351,2.505 -16.809,6.963 L 6.963,140.694 C 2.505,145.152 0,151.194 0,157.503 v 189.133 c 0,6.302 2.505,12.343 6.963,16.801 l 133.734,133.734 c 4.45,4.458 10.5,6.963 16.809,6.963 H 346.64 c 6.294,0 12.335,-2.497 16.794,-6.955 L 497.176,363.445 c 4.45,-4.458 6.963,-10.5 6.963,-16.809 V 157.503 c -0.016,-6.309 -2.521,-12.351 -6.979,-16.809 z"
     style="fill:#cc092e;stroke-width:2.02679086" /><path
     inkscape:connector-curvature="0"
     id="path4"
     d="M 66.773,80.892 6.963,140.694 C 2.505,145.152 0,151.194 0,157.503 v 189.133 c 0,6.302 2.505,12.343 6.963,16.801 l 133.734,133.734 c 4.45,4.458 10.5,6.963 16.809,6.963 H 346.64 c 6.294,0 12.335,-2.497 16.794,-6.955 l 59.809,-59.809 z"
     style="fill:#e81542;stroke-width:2.02679086" /><g
     id="g14"
     style="stroke-width:2.02679086"><path
       inkscape:connector-curvature="0"
       id="path6"
       d="m 86.355,247.15 c -15.88,-6.136 -20.708,-10.547 -20.708,-18.857 0,-6.254 4.726,-13.564 18.062,-13.564 9.106,0 16.061,2.757 20.307,5.065 1.016,0.551 2.229,0.638 3.308,0.213 1.095,-0.425 1.938,-1.308 2.308,-2.41 l 4.151,-12.304 c 0.614,-1.788 -0.142,-3.757 -1.788,-4.687 -4.104,-2.324 -13.17,-6.231 -27.766,-6.231 -24.568,0 -41.724,14.659 -41.724,35.659 0,16.786 10.957,28.83 33.367,36.777 16.305,6.262 19.495,11.91 19.495,19.543 0,10.012 -7.664,15.99 -20.496,15.99 -8.476,0 -17.818,-2.631 -24.986,-7.042 -1.016,-0.638 -2.308,-0.764 -3.458,-0.331 -1.142,0.433 -2.016,1.371 -2.371,2.544 l -3.812,12.65 c -0.488,1.662 0.142,3.45 1.583,4.419 7.168,4.773 20.338,8.113 31.996,8.113 30.988,0 44.843,-18.865 44.843,-37.565 0.008,-17.864 -9.665,-29.23 -32.311,-37.982 z"
       style="fill:#b2042e;stroke-width:2.02679086" /><path
       inkscape:connector-curvature="0"
       id="path8"
       d="m 225.816,196.281 h -86.489 c -2.166,0 -3.938,1.764 -3.938,3.938 v 12.824 c 0,2.174 1.772,3.938 3.938,3.938 h 31.602 v 100.053 c 0,2.174 1.757,3.938 3.938,3.938 h 15.25 c 2.182,0 3.938,-1.764 3.938,-3.938 V 216.982 h 31.768 c 2.182,0 3.938,-1.764 3.938,-3.938 V 200.22 c -0.007,-2.174 -1.763,-3.939 -3.945,-3.939 z"
       style="fill:#b2042e;stroke-width:2.02679086" /><path
       inkscape:connector-curvature="0"
       id="path10"
       d="m 298.772,194.375 c -34.265,0 -58.187,26.852 -58.187,65.292 0,37.218 23.213,63.212 56.446,63.212 28.971,0 58.187,-20.244 58.187,-65.465 0,-37.707 -22.678,-63.039 -56.446,-63.039 z m -0.867,108.323 c -22.89,0 -33.319,-22.481 -33.319,-43.378 0,-22.284 10.35,-44.765 33.493,-44.765 22.89,0 33.319,22.575 33.319,43.552 0,22.189 -10.35,44.591 -33.493,44.591 z"
       style="fill:#b2042e;stroke-width:2.02679086" /><path
       inkscape:connector-curvature="0"
       id="path12"
       d="m 452.506,206.127 c -7.893,-7.113 -19.803,-10.713 -35.383,-10.713 -10.602,0 -20.275,0.756 -29.601,2.3 -1.89,0.315 -3.293,1.961 -3.293,3.883 v 115.428 c 0,2.174 1.772,3.938 3.938,3.938 h 15.092 c 2.166,0 3.938,-1.764 3.938,-3.938 v -42.149 c 2.694,0.276 5.474,0.331 8.184,0.331 16.368,0 30.058,-4.994 38.526,-14.013 6.727,-6.916 10.138,-16.242 10.138,-27.703 0,-11.216 -4.119,-20.952 -11.539,-27.364 z m -36.77,49.081 c -3.387,0 -6.215,-0.165 -8.539,-0.496 v -38.904 c 2.402,-0.315 5.845,-0.551 10.264,-0.551 10.784,0 23.631,3.285 23.631,18.936 0,18.282 -15.896,21.015 -25.356,21.015 z"
       style="fill:#b2042e;stroke-width:2.02679086" /></g><path
     inkscape:connector-curvature="0"
     id="path16"
     d="m 86.355,240.589 c -15.88,-6.136 -20.708,-10.547 -20.708,-18.857 0,-6.254 4.726,-13.564 18.062,-13.564 9.106,0 16.061,2.757 20.307,5.065 1.016,0.551 2.229,0.638 3.308,0.213 1.095,-0.425 1.938,-1.308 2.308,-2.41 l 4.151,-12.304 c 0.614,-1.788 -0.142,-3.757 -1.788,-4.687 -4.104,-2.324 -13.17,-6.231 -27.766,-6.231 -24.568,0 -41.724,14.659 -41.724,35.659 0,16.786 10.957,28.83 33.367,36.777 16.305,6.262 19.495,11.91 19.495,19.543 0,10.012 -7.664,15.99 -20.496,15.99 -8.476,0 -17.818,-2.631 -24.986,-7.042 -1.016,-0.638 -2.308,-0.764 -3.458,-0.331 -1.134,0.441 -2.009,1.386 -2.363,2.552 l -3.812,12.65 c -0.488,1.662 0.142,3.45 1.583,4.419 7.168,4.773 20.338,8.113 31.996,8.113 30.988,0 44.843,-18.865 44.843,-37.565 0,-17.873 -9.673,-29.239 -32.319,-37.99 z"
     style="fill:#ffffff;stroke-width:2.02679086" /><path
     inkscape:connector-curvature="0"
     id="path18"
     d="m 225.816,189.72 h -86.489 c -2.166,0 -3.938,1.764 -3.938,3.938 v 12.824 c 0,2.174 1.772,3.938 3.938,3.938 h 31.602 v 100.053 c 0,2.174 1.757,3.938 3.938,3.938 h 15.25 c 2.182,0 3.938,-1.764 3.938,-3.938 V 210.42 h 31.768 c 2.182,0 3.938,-1.764 3.938,-3.938 v -12.824 c -0.007,-2.174 -1.763,-3.938 -3.945,-3.938 z"
     style="fill:#e0e0e0;stroke-width:2.02679086" /><path
     inkscape:connector-curvature="0"
     id="path20"
     d="m 175.592,189.72 h -36.265 c -2.166,0 -3.938,1.764 -3.938,3.938 v 12.824 c 0,2.174 1.772,3.938 3.938,3.938 h 31.602 v 100.053 c 0,2.174 1.757,3.938 3.938,3.938 h 15.25 c 2.182,0 3.938,-1.764 3.938,-3.938 V 210.42 h 2.245 z"
     style="fill:#ffffff;stroke-width:2.02679086" /><path
     inkscape:connector-curvature="0"
     id="path22"
     d="m 298.772,187.813 c -34.265,0 -58.187,26.852 -58.187,65.292 0,37.218 23.213,63.212 56.446,63.212 28.971,0 58.187,-20.244 58.187,-65.465 0,-37.706 -22.678,-63.039 -56.446,-63.039 z m -0.867,108.324 c -22.89,0 -33.319,-22.481 -33.319,-43.378 0,-22.284 10.35,-44.765 33.493,-44.765 22.89,0 33.319,22.575 33.319,43.552 0,22.189 -10.35,44.591 -33.493,44.591 z"
     style="fill:#e0e0e0;stroke-width:2.02679086" /><path
     inkscape:connector-curvature="0"
     id="path24"
     d="m 240.648,254.775 c 0.693,36.313 23.662,61.542 56.383,61.542 1.646,0 3.308,-0.087 4.939,-0.213 z"
     style="fill:#ffffff;stroke-width:2.02679086" /><path
     inkscape:connector-curvature="0"
     id="path26"
     d="m 452.506,199.566 c -7.893,-7.113 -19.803,-10.713 -35.383,-10.713 -10.602,0 -20.275,0.756 -29.601,2.3 -1.89,0.315 -3.293,1.961 -3.293,3.883 v 115.428 c 0,2.174 1.772,3.938 3.938,3.938 h 15.092 c 2.166,0 3.938,-1.764 3.938,-3.938 v -42.149 c 2.694,0.276 5.474,0.331 8.184,0.331 16.368,0 30.058,-4.994 38.526,-14.013 6.727,-6.916 10.138,-16.242 10.138,-27.703 0,-11.216 -4.119,-20.952 -11.539,-27.364 z m -36.77,49.081 c -3.387,0 -6.215,-0.165 -8.539,-0.496 v -38.904 c 2.402,-0.315 5.845,-0.551 10.264,-0.551 10.784,0 23.631,3.285 23.631,18.936 0,18.282 -15.896,21.015 -25.356,21.015 z"
     style="fill:#e0e0e0;stroke-width:2.02679086" /><g
     id="g28"
     style="stroke-width:2.02679086" /><g
     id="g30"
     style="stroke-width:2.02679086" /><g
     id="g32"
     style="stroke-width:2.02679086" /><g
     id="g34"
     style="stroke-width:2.02679086" /><g
     id="g36"
     style="stroke-width:2.02679086" /><g
     id="g38"
     style="stroke-width:2.02679086" /><g
     id="g40"
     style="stroke-width:2.02679086" /><g
     id="g42"
     style="stroke-width:2.02679086" /><g
     id="g44"
     style="stroke-width:2.02679086" /><g
     id="g46"
     style="stroke-width:2.02679086" /><g
     id="g48"
     style="stroke-width:2.02679086" /><g
     id="g50"
     style="stroke-width:2.02679086" /><g
     id="g52"
     style="stroke-width:2.02679086" /><g
     id="g54"
     style="stroke-width:2.02679086" /><g
     id="g56"
     style="stroke-width:2.02679086" /></g></g>
<g
   id="g5131">
</g>
<g
   id="g5133">
</g>
<g
   id="g5135">
</g>
<g
   id="g5137">
</g>
<g
   id="g5139">
</g>
<g
   id="g5141">
</g>
<g
   id="g5143">
</g>
<g
   id="g5145">
</g>
<g
   id="g5147">
</g>
<g
   id="g5149">
</g>
<g
   id="g5151">
</g>
<g
   id="g5153">
</g>
<g
   id="g5155">
</g>
<g
   id="g5157">
</g>
<g
   id="g5159">
</g>
</svg>