<?xml version="1.0" encoding="UTF-8" standalone="no"?>
<!-- Generator: Adobe Illustrator 19.0.0, SVG Export Plug-In . SVG Version: 6.00 Build 0)  -->

<svg
   xmlns:dc="http://purl.org/dc/elements/1.1/"
   xmlns:cc="http://creativecommons.org/ns#"
   xmlns:rdf="http://www.w3.org/1999/02/22-rdf-syntax-ns#"
   xmlns:svg="http://www.w3.org/2000/svg"
   xmlns="http://www.w3.org/2000/svg"
   xmlns:sodipodi="http://sodipodi.sourceforge.net/DTD/sodipodi-0.dtd"
   xmlns:inkscape="http://www.inkscape.org/namespaces/inkscape"
   version="1.1"
   id="Layer_1"
   x="0px"
   y="0px"
   viewBox="0 0 489.7 489.7"
   style="enable-background:new 0 0 489.7 489.7;"
   xml:space="preserve"
   sodipodi:docname="networkall.svg"
   inkscape:version="0.92.4 (5da689c313, 2019-01-14)"><metadata
   id="metadata5166"><rdf:RDF><cc:Work
       rdf:about=""><dc:format>image/svg+xml</dc:format><dc:type
         rdf:resource="http://purl.org/dc/dcmitype/StillImage" /><dc:title /></cc:Work></rdf:RDF></metadata><defs
   id="defs5164" /><sodipodi:namedview
   pagecolor="#ffffff"
   bordercolor="#666666"
   borderopacity="1"
   objecttolerance="10"
   gridtolerance="10"
   guidetolerance="10"
   inkscape:pageopacity="0"
   inkscape:pageshadow="2"
   inkscape:window-width="1024"
   inkscape:window-height="710"
   id="namedview5162"
   showgrid="false"
   inkscape:zoom="0.4819277"
   inkscape:cx="208.53751"
   inkscape:cy="244.85001"
   inkscape:window-x="0"
   inkscape:window-y="0"
   inkscape:window-maximized="1"
   inkscape:current-layer="Layer_1" />
<g
   id="g5129">
	<g
   id="g5127"
   transform="translate(4.8275286e-8,-2.0750001)">
		<path
   id="XMLID_1284_"
   style="fill:#00ff00"
   d="m 17.1,357.45 h 107.7 c 4.4,0 8.1,3.6 8.1,8.1 v 65.8 c 0,4.4 -3.6,8.1 -8.1,8.1 H 17.1 c -4.4,0 -8.1,-3.6 -8.1,-8.1 v -65.8 c 0,-4.5 3.7,-8.1 8.1,-8.1 z"
   inkscape:connector-curvature="0" />
		<path
   id="XMLID_1282_"
   style="fill:#00ff00"
   d="m 192.775,349.15 h 107.7 c 4.4,0 8.1,3.6 8.1,8.1 v 65.8 c 0,4.4 -3.6,8.1 -8.1,8.1 h -107.7 c -4.4,0 -8.1,-3.6 -8.1,-8.1 v -65.8 c 0.1,-4.5 3.7,-8.1 8.1,-8.1 z"
   inkscape:connector-curvature="0" />
		<path
   d="m 116.6,448.45 c 14,0 25.3,-11.4 25.3,-25.3 v -49.4 c 0,-14 -11.4,-25.3 -25.3,-25.3 H 80 v -67.8 h 155.8 v 67.8 h -36.6 c -14,0 -25.3,11.4 -25.3,25.3 v 49.4 c 0,14 11.4,25.3 25.3,25.3 h 91.3 c 14,0 25.3,-11.4 25.3,-25.3 v -49.4 c 0,-14 -11.4,-25.3 -25.3,-25.3 h -36.6 v -67.8 h 155.8 v 67.8 h -36.6 c -14,0 -25.3,11.4 -25.3,25.3 v 49.4 c 0,14 11.4,25.3 25.3,25.3 h 91.3 c 14,0 25.3,-11.4 25.3,-25.3 v -49.4 c 0,-14 -11.4,-25.3 -25.3,-25.3 h -36.5 v -76.8 c 0,-5 -4.1,-9.1 -9.1,-9.1 H 254 v -47.3 h 74 c 18.3,0 33.2,-14.9 33.2,-33.2 V 74.45 c 0,-18.3 -14.9,-33.2 -33.2,-33.2 H 161.8 c -18.3,0 -33.2,14.9 -33.2,33.2 v 107.5 c 0,18.3 14.9,33.2 33.2,33.2 h 74 v 47.3 H 70.9 c -5,0 -9.1,4.1 -9.1,9.1 v 76.8 H 25.3 c -14,0 -25.3,11.4 -25.3,25.3 v 49.4 c 0,14 11.4,25.3 25.3,25.3 h 91.3 c 0,0 0,0.1 0,0.1 z m 181.1,-74.7 v 49.4 c 0,4 -3.2,7.2 -7.2,7.2 h -91.3 c -4,0 -7.2,-3.2 -7.2,-7.2 v -49.4 c 0,-4 3.2,-7.2 7.2,-7.2 h 91.3 c 4,-0.1 7.2,3.2 7.2,7.2 z m 174,0 v 49.4 c 0,4 -3.2,7.2 -7.2,7.2 h -91.3 c -4,0 -7.2,-3.2 -7.2,-7.2 v -49.4 c 0,-4 3.2,-7.2 7.2,-7.2 h 91.3 c 4,-0.1 7.2,3.2 7.2,7.2 z m -325,-191.8 V 74.45 c 0,-8.3 6.8,-15.1 15.1,-15.1 H 328 c 8.3,0 15.1,6.8 15.1,15.1 v 107.5 c 0,8.3 -6.8,15.1 -15.1,15.1 H 161.8 c -8.3,0 -15.1,-6.8 -15.1,-15.1 z M 18.1,423.15 v -49.4 c 0,-4 3.2,-7.2 7.2,-7.2 h 91.3 c 4,0 7.2,3.2 7.2,7.2 v 49.4 c 0,4 -3.2,7.2 -7.2,7.2 H 25.3 c -4,0 -7.2,-3.2 -7.2,-7.2 z"
   id="path5125"
   inkscape:connector-curvature="0" />
	</g>
<path
   id="XMLID_1282_-0"
   style="fill:#00ff00;stroke-width:0.8098498"
   d="m 372.72911,365.05001 h 91.46678 c 3.7368,0 6.87911,2.78012 6.87911,6.25527 v 50.81446 c 0,3.39792 -3.05739,6.25527 -6.87911,6.25527 h -91.46678 c -3.7368,0 -6.87911,-2.78012 -6.87911,-6.25527 v -50.81446 c 0.0849,-3.47515 3.14231,-6.25527 6.87911,-6.25527 z"
   inkscape:connector-curvature="0" /></g>
<g
   id="g5131">
</g>
<g
   id="g5133">
</g>
<g
   id="g5135">
</g>
<g
   id="g5137">
</g>
<g
   id="g5139">
</g>
<g
   id="g5141">
</g>
<g
   id="g5143">
</g>
<g
   id="g5145">
</g>
<g
   id="g5147">
</g>
<g
   id="g5149">
</g>
<g
   id="g5151">
</g>
<g
   id="g5153">
</g>
<g
   id="g5155">
</g>
<g
   id="g5157">
</g>
<g
   id="g5159">
</g>
</svg>