<?xml version="1.0" encoding="UTF-8" standalone="no"?>
<!-- Generator: Adobe Illustrator 19.0.0, SVG Export Plug-In . SVG Version: 6.00 Build 0)  -->

<svg
   xmlns:dc="http://purl.org/dc/elements/1.1/"
   xmlns:cc="http://creativecommons.org/ns#"
   xmlns:rdf="http://www.w3.org/1999/02/22-rdf-syntax-ns#"
   xmlns:svg="http://www.w3.org/2000/svg"
   xmlns="http://www.w3.org/2000/svg"
   xmlns:sodipodi="http://sodipodi.sourceforge.net/DTD/sodipodi-0.dtd"
   xmlns:inkscape="http://www.inkscape.org/namespaces/inkscape"
   version="1.1"
   id="Layer_1"
   x="0px"
   y="0px"
   viewBox="0 0 512 512"
   style="enable-background:new 0 0 512 512;"
   xml:space="preserve"
   sodipodi:docname="print.svg"
   inkscape:version="0.92.4 (5da689c313, 2019-01-14)"><metadata
   id="metadata57"><rdf:RDF><cc:Work
       rdf:about=""><dc:format>image/svg+xml</dc:format><dc:type
         rdf:resource="http://purl.org/dc/dcmitype/StillImage" /></cc:Work></rdf:RDF></metadata><defs
   id="defs55" /><sodipodi:namedview
   pagecolor="#ffffff"
   bordercolor="#666666"
   borderopacity="1"
   objecttolerance="10"
   gridtolerance="10"
   guidetolerance="10"
   inkscape:pageopacity="0"
   inkscape:pageshadow="2"
   inkscape:window-width="640"
   inkscape:window-height="480"
   id="namedview53"
   showgrid="false"
   inkscape:zoom="0.4609375"
   inkscape:cx="256"
   inkscape:cy="256"
   inkscape:window-x="0"
   inkscape:window-y="0"
   inkscape:window-maximized="0"
   inkscape:current-layer="Layer_1" />
<path
   style="fill:#b4e2ff"
   d="M51.2,396.8c-21.171,0-38.4-17.229-38.4-38.4V179.2c0-21.171,17.229-38.4,38.4-38.4h409.6  c21.171,0,38.4,17.229,38.4,38.4v179.2c0,21.171-17.229,38.4-38.4,38.4H51.2z"
   id="path2" />
<g
   id="g8"
   style="fill:#b4e2ff">
	<rect
   x="128"
   y="268.8"
   style="fill:#b4e2ff"
   width="256"
   height="230.4"
   id="rect4" />
	<rect
   x="128"
   y="12.8"
   style="fill:#b4e2ff"
   width="256"
   height="128"
   id="rect6" />
</g>
<g
   id="g20"
   style="fill:#0066cc">
	<rect
   x="166.4"
   y="435.2"
   style="fill:#0066cc"
   width="179.2"
   height="25.6"
   id="rect10" />
	<rect
   x="166.4"
   y="384"
   style="fill:#0066cc"
   width="179.2"
   height="25.6"
   id="rect12" />
	<rect
   x="166.4"
   y="332.8"
   style="fill:#0066cc"
   width="179.2"
   height="25.6"
   id="rect14" />
	<path
   style="fill:#0066cc"
   d="M51.2,409.6h64V512h281.6V409.6h64c28.237,0,51.2-22.972,51.2-51.2V179.2   c0-28.228-22.963-51.2-51.2-51.2h-64V0H115.2v128h-64C22.972,128,0,150.972,0,179.2v179.2C0,386.628,22.972,409.6,51.2,409.6z    M371.2,486.4H140.8V281.6h230.4V486.4z M140.8,25.6h230.4V128H140.8V25.6z M25.6,179.2c0-14.14,11.46-25.6,25.6-25.6h409.6   c14.14,0,25.6,11.46,25.6,25.6v179.2c0,14.14-11.46,25.6-25.6,25.6h-64V281.6h25.6c7.074,0,12.8-5.726,12.8-12.8   s-5.726-12.8-12.8-12.8H89.6c-7.074,0-12.8,5.726-12.8,12.8c0,7.074,5.726,12.8,12.8,12.8h25.6V384h-64   c-14.14,0-25.6-11.46-25.6-25.6V179.2z"
   id="path16" />
	<path
   style="fill:#0066cc"
   d="M320,204.8h102.4c7.074,0,12.8-5.726,12.8-12.8c0-7.074-5.726-12.8-12.8-12.8H320   c-7.074,0-12.8,5.726-12.8,12.8C307.2,199.074,312.926,204.8,320,204.8z"
   id="path18" />
</g>
<g
   id="g22">
</g>
<g
   id="g24">
</g>
<g
   id="g26">
</g>
<g
   id="g28">
</g>
<g
   id="g30">
</g>
<g
   id="g32">
</g>
<g
   id="g34">
</g>
<g
   id="g36">
</g>
<g
   id="g38">
</g>
<g
   id="g40">
</g>
<g
   id="g42">
</g>
<g
   id="g44">
</g>
<g
   id="g46">
</g>
<g
   id="g48">
</g>
<g
   id="g50">
</g>
</svg>