<?xml version="1.0" encoding="UTF-8" standalone="no"?>
<!-- Uploaded to SVGRepo https://www.svgrepo.com -->

<svg
   xmlns:dc="http://purl.org/dc/elements/1.1/"
   xmlns:cc="http://creativecommons.org/ns#"
   xmlns:rdf="http://www.w3.org/1999/02/22-rdf-syntax-ns#"
   xmlns:svg="http://www.w3.org/2000/svg"
   xmlns="http://www.w3.org/2000/svg"
   xmlns:sodipodi="http://sodipodi.sourceforge.net/DTD/sodipodi-0.dtd"
   xmlns:inkscape="http://www.inkscape.org/namespaces/inkscape"
   version="1.1"
   id="Layer_1"
   x="0px"
   y="0px"
   viewBox="0 0 32 32"
   style="enable-background:new 0 0 32 32;"
   xml:space="preserve"
   sodipodi:docname="select.svg"
   inkscape:version="0.92.4 (5da689c313, 2019-01-14)"><metadata
   id="metadata9"><rdf:RDF><cc:Work
       rdf:about=""><dc:format>image/svg+xml</dc:format><dc:type
         rdf:resource="http://purl.org/dc/dcmitype/StillImage" /><dc:title></dc:title></cc:Work></rdf:RDF></metadata><defs
   id="defs7" /><sodipodi:namedview
   pagecolor="#ffffff"
   bordercolor="#666666"
   borderopacity="1"
   objecttolerance="10"
   gridtolerance="10"
   guidetolerance="10"
   inkscape:pageopacity="0"
   inkscape:pageshadow="2"
   inkscape:window-width="1024"
   inkscape:window-height="710"
   id="namedview5"
   showgrid="false"
   inkscape:zoom="10.429825"
   inkscape:cx="11.898051"
   inkscape:cy="15.68715"
   inkscape:window-x="0"
   inkscape:window-y="0"
   inkscape:window-maximized="1"
   inkscape:current-layer="Layer_1" />
<path
   id="select--product_1_"
   d="M 30.631185,29.466125 V 17.749396 c 0,-0.1943 -0.164041,-0.351501 -0.366799,-0.351501 H 18.037769 c -0.202758,0 -0.366799,0.157203 -0.366799,0.351501 v 11.716729 c 0,0.194301 0.164041,0.351502 0.366799,0.351502 h 12.226617 c 0.202758,0 0.366799,-0.157203 0.366799,-0.351502 z M 18.404567,18.1009 H 29.897588 V 29.114624 H 18.404567 Z M 14.329028,29.466125 V 17.749396 c 0,-0.1943 -0.16404,-0.351501 -0.366798,-0.351501 H 1.735612 c -0.2027581,0 -0.3667985,0.157203 -0.3667985,0.351501 v 11.716729 c 0,0.194301 0.1640404,0.351502 0.3667985,0.351502 H 13.96223 c 0.202758,0 0.366798,-0.157203 0.366798,-0.351502 z M 2.1024105,18.1009 H 13.595431 V 29.114624 H 2.1024105 Z M 30.631185,13.843821 V 2.1270946 c 0,-0.1943027 -0.164041,-0.3515017 -0.366799,-0.3515017 H 18.037769 c -0.202758,0 -0.366799,0.1572028 -0.366799,0.3515017 V 13.843821 c 0,0.194303 0.164041,0.351504 0.366799,0.351504 h 12.226617 c 0.202758,0 0.366799,-0.157203 0.366799,-0.351504 z M 18.404567,2.4785963 H 29.897588 V 13.49232 H 18.404567 Z M 14.329028,13.843821 V 2.1270946 c 0,-0.1943027 -0.16404,-0.3515017 -0.366798,-0.3515017 H 1.735612 c -0.2027581,0 -0.3667985,0.1572028 -0.3667985,0.3515017 V 13.843821 c 0,0.194303 0.1640404,0.351504 0.3667985,0.351504 H 13.96223 c 0.202758,0 0.366798,-0.157203 0.366798,-0.351504 z M 2.1024105,2.4785963 H 13.595431 V 13.49232 H 2.1024105 Z"
   inkscape:connector-curvature="0"
   style="fill:#333366;stroke-width:1"
   sodipodi:nodetypes="ssssssssscccccssssssssscccccssssssssscccccsssssssssccccc" />
<rect
   id="_Transparent_Rectangle"
   style="fill:none;"
   width="32"
   height="32" />
<path
   inkscape:connector-curvature="0"
   style="fill:#009900;stroke-width:1"
   d="m 20.87724,22.726864 a 0.48033831,0.58522744 0 0 1 0.679198,0 l 1.698476,2.069364 3.395992,-4.138143 a 0.48043564,0.58534604 0 1 1 0.679678,0.827511 l -4.07567,4.965655 -2.377674,-2.896876 a 0.48033831,0.58522744 0 0 1 0,-0.827511 z"
   id="path2" /><path
   inkscape:connector-curvature="0"
   style="fill:#009900;stroke-width:1"
   d="m 4.3475492,6.7132775 a 0.48033831,0.58522744 0 0 1 0.679198,0 l 1.698476,2.069364 3.3959918,-4.138143 a 0.48043564,0.58534604 0 1 1 0.679678,0.827511 L 6.7252232,10.437665 4.3475492,7.5407885 a 0.48033831,0.58522744 0 0 1 0,-0.827511 z"
   id="path2-7" /></svg>