<?xml version="1.0" encoding="UTF-8" standalone="no"?>
<!-- Generator: Adobe Illustrator 19.0.0, SVG Export Plug-In . SVG Version: 6.00 Build 0)  -->

<svg
   xmlns:dc="http://purl.org/dc/elements/1.1/"
   xmlns:cc="http://creativecommons.org/ns#"
   xmlns:rdf="http://www.w3.org/1999/02/22-rdf-syntax-ns#"
   xmlns:svg="http://www.w3.org/2000/svg"
   xmlns="http://www.w3.org/2000/svg"
   xmlns:sodipodi="http://sodipodi.sourceforge.net/DTD/sodipodi-0.dtd"
   xmlns:inkscape="http://www.inkscape.org/namespaces/inkscape"
   version="1.1"
   id="Layer_1"
   x="0px"
   y="0px"
   viewBox="0 0 503.467 503.467"
   style="enable-background:new 0 0 503.467 503.467;"
   xml:space="preserve"
   sodipodi:docname="senddesktopquiz.svg"
   inkscape:version="0.92.4 (5da689c313, 2019-01-14)"><metadata
   id="metadata47"><rdf:RDF><cc:Work
       rdf:about=""><dc:format>image/svg+xml</dc:format><dc:type
         rdf:resource="http://purl.org/dc/dcmitype/StillImage" /><dc:title /></cc:Work></rdf:RDF></metadata><defs
   id="defs45" /><sodipodi:namedview
   pagecolor="#ffffff"
   bordercolor="#666666"
   borderopacity="1"
   objecttolerance="10"
   gridtolerance="10"
   guidetolerance="10"
   inkscape:pageopacity="0"
   inkscape:pageshadow="2"
   inkscape:window-width="1024"
   inkscape:window-height="710"
   id="namedview43"
   showgrid="false"
   inkscape:zoom="0.46874968"
   inkscape:cx="177.06679"
   inkscape:cy="251.73351"
   inkscape:window-x="0"
   inkscape:window-y="0"
   inkscape:window-maximized="1"
   inkscape:current-layer="Layer_1" />
<g
   transform="translate(1 1)"
   id="g8">
	<path
   style="fill:#E4F2DE;"
   d="M139.8,353.133v136.533c0,4.267-4.267,8.533-8.533,8.533H11.8c-4.267,0-8.533-4.267-8.533-8.533   V353.133c0-4.267,4.267-8.533,8.533-8.533h59.733h59.733C135.533,344.6,139.8,348.867,139.8,353.133z M498.2,353.133v136.533   c0,4.267-3.413,8.533-8.533,8.533H370.2c-5.12,0-8.533-4.267-8.533-8.533V353.133c0-4.267,3.413-8.533,8.533-8.533h59.733h59.733   C494.787,344.6,498.2,348.867,498.2,353.133z M319,353.133v136.533c0,4.267-3.413,8.533-8.533,8.533H191   c-5.12,0-8.533-4.267-8.533-8.533V353.133c0-4.267,3.413-8.533,8.533-8.533h59.733h59.733C315.587,344.6,319,348.867,319,353.133z"
   id="path2" />
	<path
   style="fill:#7EE1E6;"
   d="M250.733,259.267c9.387,0,17.067,7.68,17.067,17.067s-7.68,17.067-17.067,17.067   c-9.387,0-17.067-7.68-17.067-17.067S241.347,259.267,250.733,259.267"
   id="path4" />
	<path
   style="fill:#FFD0A1;"
   d="M319,63v17.067c0,4.267-3.413,8.533-8.533,8.533c0,17.067-8.533,34.133-8.533,34.133   c-8.533,17.067-17.92,34.133-51.2,34.133s-42.667-17.067-51.2-34.133c0,0-8.533-17.067-8.533-34.133   c-5.12,0-8.533-4.267-8.533-8.533V63c0-4.267,3.413-8.533,8.533-8.533v-8.533c0-23.893,18.773-42.667,42.667-42.667H267.8   c23.893,0,42.667,18.773,42.667,42.667v8.533C315.587,54.467,319,58.733,319,63"
   id="path6" />
</g>
<path
   style="fill:#51565F;"
   d="M490.667,503.467H371.2c-6.827,0-12.8-5.973-12.8-12.8V354.133c0-6.827,5.973-12.8,12.8-12.8h119.467  c6.827,0,12.8,5.973,12.8,12.8v136.533C503.467,497.493,497.493,503.467,490.667,503.467z M371.2,349.867  c-2.56,0-4.267,1.707-4.267,4.267v136.533c0,2.56,1.707,4.267,4.267,4.267h119.467c2.56,0,4.267-1.707,4.267-4.267V354.133  c0-2.56-1.707-4.267-4.267-4.267H371.2z M311.467,503.467H192c-6.827,0-12.8-5.973-12.8-12.8V354.133c0-6.827,5.973-12.8,12.8-12.8  h119.467c6.827,0,12.8,5.973,12.8,12.8v136.533C324.267,497.493,318.293,503.467,311.467,503.467z M192,349.867  c-2.56,0-4.267,1.707-4.267,4.267v136.533c0,2.56,1.707,4.267,4.267,4.267h119.467c2.56,0,4.267-1.707,4.267-4.267V354.133  c0-2.56-1.707-4.267-4.267-4.267H192z M132.267,503.467H12.8c-6.827,0-12.8-5.973-12.8-12.8V354.133c0-6.827,5.973-12.8,12.8-12.8  h119.467c6.827,0,12.8,5.973,12.8,12.8v136.533C145.067,497.493,139.093,503.467,132.267,503.467z M12.8,349.867  c-2.56,0-4.267,1.707-4.267,4.267v136.533c0,2.56,1.707,4.267,4.267,4.267h119.467c2.56,0,4.267-1.707,4.267-4.267V354.133  c0-2.56-1.707-4.267-4.267-4.267H12.8z M465.067,469.333H396.8c-2.56,0-4.267-1.707-4.267-4.267c0-2.56,1.707-4.267,4.267-4.267  h68.267c2.56,0,4.267,1.707,4.267,4.267C469.333,467.627,467.627,469.333,465.067,469.333z M285.867,469.333H217.6  c-2.56,0-4.267-1.707-4.267-4.267c0-2.56,1.707-4.267,4.267-4.267h68.267c2.56,0,4.267,1.707,4.267,4.267  C290.133,467.627,288.427,469.333,285.867,469.333z M106.667,469.333H38.4c-2.56,0-4.267-1.707-4.267-4.267  c0-2.56,1.707-4.267,4.267-4.267h68.267c2.56,0,4.267,1.707,4.267,4.267C110.933,467.627,109.227,469.333,106.667,469.333z   M465.067,435.2H396.8c-2.56,0-4.267-1.707-4.267-4.267c0-2.56,1.707-4.267,4.267-4.267h68.267c2.56,0,4.267,1.707,4.267,4.267  C469.333,433.493,467.627,435.2,465.067,435.2z M285.867,435.2H217.6c-2.56,0-4.267-1.707-4.267-4.267  c0-2.56,1.707-4.267,4.267-4.267h68.267c2.56,0,4.267,1.707,4.267,4.267C290.133,433.493,288.427,435.2,285.867,435.2z   M106.667,435.2H38.4c-2.56,0-4.267-1.707-4.267-4.267c0-2.56,1.707-4.267,4.267-4.267h68.267c2.56,0,4.267,1.707,4.267,4.267  C110.933,433.493,109.227,435.2,106.667,435.2z M430.933,401.067H396.8c-2.56,0-4.267-1.707-4.267-4.267s1.707-4.267,4.267-4.267  h34.133c2.56,0,4.267,1.707,4.267,4.267S433.493,401.067,430.933,401.067z M251.733,401.067H217.6c-2.56,0-4.267-1.707-4.267-4.267  s1.707-4.267,4.267-4.267h34.133c2.56,0,4.267,1.707,4.267,4.267S254.293,401.067,251.733,401.067z M72.533,401.067H38.4  c-2.56,0-4.267-1.707-4.267-4.267s1.707-4.267,4.267-4.267h34.133c2.56,0,4.267,1.707,4.267,4.267S75.093,401.067,72.533,401.067z   M430.933,315.733c-2.56,0-4.267-1.707-4.267-4.267V281.6H272.213c-1.707,8.533-8.533,15.36-17.067,17.067v12.8  c0,2.56-1.707,4.267-4.267,4.267s-4.267-1.707-4.267-4.267v-12.8c-8.533-1.707-15.36-8.533-16.213-17.067H75.947v29.867  c0,2.56-1.707,4.267-4.267,4.267c-2.56,0-4.267-1.707-4.267-4.267v-34.133c0-2.56,1.707-4.267,4.267-4.267H230.4  c1.707-8.533,8.533-15.36,16.213-16.213V192c0-2.56,1.707-4.267,4.267-4.267s4.267,1.707,4.267,4.267v64.853  c8.533,1.707,15.36,8.533,17.067,16.213h158.72c2.56,0,4.267,1.707,4.267,4.267v34.133  C435.2,314.027,433.493,315.733,430.933,315.733z M251.733,264.533c-6.827,0-12.8,5.973-12.8,12.8s5.973,12.8,12.8,12.8  c6.827,0,12.8-5.973,12.8-12.8S258.56,264.533,251.733,264.533z M251.733,162.133c-36.693,0-46.933-21.333-54.613-36.693  c0-0.853-7.68-16.213-8.533-32.427c-5.12-1.707-8.533-6.827-8.533-11.947V64c0-5.973,3.413-10.24,8.533-11.947v-5.12  C188.587,21.333,209.92,0,235.52,0h34.133c25.6,0,46.933,21.333,46.933,46.933v5.12c5.12,1.707,8.533,6.827,8.533,11.947v17.067  c0,5.973-3.413,10.24-8.533,11.947c-0.853,16.213-8.533,31.573-8.533,32.427C298.667,140.8,288.427,162.133,251.733,162.133z   M234.667,8.533c-21.333,0-38.4,17.067-38.4,38.4v8.533c0,2.56-1.707,4.267-4.267,4.267s-4.267,1.707-4.267,4.267v17.067  c0,2.56,1.707,4.267,4.267,4.267s4.267,1.707,4.267,4.267c0,16.213,7.68,32.427,7.68,32.427  c9.387,18.773,17.92,31.573,47.787,31.573c29.013,0,38.4-12.8,47.787-31.573c0,0,7.68-16.213,7.68-32.427  c0-2.56,1.707-4.267,4.267-4.267s4.267-1.707,4.267-4.267V64c0-2.56-1.707-4.267-4.267-4.267s-4.267-1.707-4.267-4.267v-8.533  c0-21.333-17.067-38.4-38.4-38.4H234.667z M277.333,76.8H268.8c-2.56,0-4.267-1.707-4.267-4.267c0-2.56,1.707-4.267,4.267-4.267  h8.533c2.56,0,4.267,1.707,4.267,4.267C281.6,75.093,279.893,76.8,277.333,76.8z M234.667,76.8h-8.533  c-2.56,0-4.267-1.707-4.267-4.267c0-2.56,1.707-4.267,4.267-4.267h8.533c2.56,0,4.267,1.707,4.267,4.267  C238.933,75.093,237.227,76.8,234.667,76.8z"
   id="path10" />
<g
   id="g12">
</g>
<g
   id="g14">
</g>
<g
   id="g16">
</g>
<g
   id="g18">
</g>
<g
   id="g20">
</g>
<g
   id="g22">
</g>
<g
   id="g24">
</g>
<g
   id="g26">
</g>
<g
   id="g28">
</g>
<g
   id="g30">
</g>
<g
   id="g32">
</g>
<g
   id="g34">
</g>
<g
   id="g36">
</g>
<g
   id="g38">
</g>
<g
   id="g40">
</g>
<polygon
   transform="matrix(0.50698976,0,0,-0.40814468,-57.618793,456.58786)"
   style="fill:#000033"
   points="221.888,76.323 221.888,483.284 261.888,483.284 261.888,76.815 347.5,162.426 375.784,134.142 241.642,0 107.5,134.142 135.784,162.427 "
   id="polygon2" /><polygon
   transform="matrix(0.50698976,0,0,-0.40814468,118.95847,457.78279)"
   style="fill:#000033"
   points="107.5,134.142 135.784,162.427 221.888,76.323 221.888,483.284 261.888,483.284 261.888,76.815 347.5,162.426 375.784,134.142 241.642,0 "
   id="polygon2-3" /><polygon
   transform="matrix(0.50698976,0,0,-0.40814468,295.6236,457.02514)"
   style="fill:#000033"
   points="375.784,134.142 241.642,0 107.5,134.142 135.784,162.427 221.888,76.323 221.888,483.284 261.888,483.284 261.888,76.815 347.5,162.426 "
   id="polygon2-6" /></svg>