<?xml version="1.0" encoding="UTF-8" standalone="no"?>
<!-- Generator: Adobe Illustrator 19.0.0, SVG Export Plug-In . SVG Version: 6.00 Build 0)  -->

<svg
   xmlns:dc="http://purl.org/dc/elements/1.1/"
   xmlns:cc="http://creativecommons.org/ns#"
   xmlns:rdf="http://www.w3.org/1999/02/22-rdf-syntax-ns#"
   xmlns:svg="http://www.w3.org/2000/svg"
   xmlns="http://www.w3.org/2000/svg"
   xmlns:sodipodi="http://sodipodi.sourceforge.net/DTD/sodipodi-0.dtd"
   xmlns:inkscape="http://www.inkscape.org/namespaces/inkscape"
   version="1.1"
   id="Layer_1"
   x="0px"
   y="0px"
   viewBox="0 0 512 512"
   style="enable-background:new 0 0 512 512;"
   xml:space="preserve"
   sodipodi:docname="settings-gear-svgrepo-com.svg"
   inkscape:version="0.92.4 (5da689c313, 2019-01-14)"><metadata
   id="metadata45"><rdf:RDF><cc:Work
       rdf:about=""><dc:format>image/svg+xml</dc:format><dc:type
         rdf:resource="http://purl.org/dc/dcmitype/StillImage" /></cc:Work></rdf:RDF></metadata><defs
   id="defs43" /><sodipodi:namedview
   pagecolor="#ffffff"
   bordercolor="#666666"
   borderopacity="1"
   objecttolerance="10"
   gridtolerance="10"
   guidetolerance="10"
   inkscape:pageopacity="0"
   inkscape:pageshadow="2"
   inkscape:window-width="770"
   inkscape:window-height="480"
   id="namedview41"
   showgrid="false"
   inkscape:zoom="0.4609375"
   inkscape:cx="676.88136"
   inkscape:cy="256"
   inkscape:window-x="0"
   inkscape:window-y="0"
   inkscape:window-maximized="0"
   inkscape:current-layer="Layer_1" />
<path
   style="fill:#b4e2ff"
   d="M499.2,294.4v-76.8h-55.27c-4.898-23.979-14.404-46.908-27.904-67.328l39.083-39.091l-54.298-54.306  l-39.083,39.091c-20.42-13.5-43.358-23.006-67.328-27.887V12.8h-76.8v55.279c-23.97,4.89-46.908,14.387-67.337,27.887  l-39.083-39.091l-54.298,54.306l39.083,39.091c-13.5,20.42-22.997,43.358-27.904,67.328H12.8v76.8h55.27  c4.898,23.979,14.404,46.908,27.904,67.328l-39.083,39.091l54.298,54.298l39.083-39.083c20.437,13.508,43.366,23.006,67.337,27.895  v55.27h76.8v-55.279c23.97-4.89,46.899-14.387,67.337-27.895l39.083,39.083l54.298-54.298l-39.083-39.091  c13.5-20.42,22.997-43.358,27.904-67.328H499.2V294.4z M256,371.2c-63.625,0-115.2-51.575-115.2-115.2S192.375,140.8,256,140.8  S371.2,192.375,371.2,256S319.625,371.2,256,371.2z"
   id="path2" />
<g
   id="g8">
	<path
   style="fill:#99ccff;stroke:#000000;stroke-opacity:1"
   d="M486.4,204.8h-32.299c-4.779-18.466-12.134-36.233-21.82-52.676l22.835-22.844   c10.001-10.001,10.001-26.206,0-36.207L418.91,56.866c-4.804-4.804-11.315-7.501-18.099-7.501c-6.793,0-13.303,2.697-18.099,7.501   L359.868,79.71c-16.435-9.677-34.202-17.033-52.668-21.811V25.6c0-14.14-11.46-25.6-25.6-25.6h-51.2c-14.14,0-25.6,11.46-25.6,25.6   v32.299c-18.466,4.779-36.233,12.134-52.676,21.82l-22.835-22.844c-4.804-4.804-11.315-7.501-18.099-7.501   c-6.784,0-13.303,2.697-18.099,7.501L56.883,93.082c-10.001,10.001-10.001,26.206,0,36.207l22.844,22.844   c-9.694,16.435-17.05,34.202-21.828,52.668H25.6C11.46,204.8,0,216.26,0,230.4v51.2c0,14.14,11.46,25.6,25.6,25.6h32.299   c4.779,18.466,12.134,36.233,21.82,52.676L56.875,382.72c-10.001,10.001-10.001,26.206,0,36.207l36.207,36.207   c5.001,5.001,11.554,7.501,18.099,7.501s13.107-2.5,18.099-7.501l22.844-22.844c16.444,9.685,34.21,17.05,52.676,21.82v32.29   c0,14.14,11.46,25.6,25.6,25.6h51.2c14.14,0,25.6-11.46,25.6-25.6v-32.299c18.466-4.779,36.233-12.134,52.676-21.82l22.844,22.844   c5.001,5.001,11.554,7.501,18.099,7.501c6.545,0,13.107-2.5,18.099-7.501l36.198-36.207c10.001-10.001,10.001-26.206,0-36.207   l-22.835-22.844c9.685-16.444,17.041-34.21,21.82-52.676H486.4c14.14,0,25.6-11.46,25.6-25.6v-51.2   C512,216.26,500.54,204.8,486.4,204.8z M486.4,281.6h-53.239c-4.352,30.327-16.239,58.138-33.792,81.57l37.641,37.641   l-36.207,36.207l-37.641-37.641c-23.433,17.545-51.243,29.44-81.57,33.792V486.4h-51.2v-53.239   c-30.327-4.352-58.138-16.239-81.57-33.792l-37.641,37.641l-36.207-36.207l37.641-37.641c-17.545-23.433-29.44-51.243-33.792-81.57   H25.6v-51.2h53.239c4.352-30.327,16.239-58.138,33.792-81.57l-37.641-37.641l36.207-36.207l37.641,37.641   c23.433-17.545,51.243-29.44,81.57-33.783V25.6h51.2v53.239c30.327,4.352,58.138,16.239,81.57,33.783l37.641-37.641l36.207,36.207   l-37.641,37.641c17.545,23.433,29.44,51.243,33.792,81.57H486.4V281.6z"
   id="path4" />
	<path
   style="fill:#99ccff;stroke:#000000;stroke-opacity:1"
   d="M256,128c-70.69,0-128,57.31-128,128s57.31,128,128,128s128-57.31,128-128S326.69,128,256,128z    M256,358.4c-56.465,0-102.4-45.935-102.4-102.4S199.535,153.6,256,153.6S358.4,199.535,358.4,256S312.465,358.4,256,358.4z"
   id="path6" />
</g>
<g
   id="g10">
</g>
<g
   id="g12">
</g>
<g
   id="g14">
</g>
<g
   id="g16">
</g>
<g
   id="g18">
</g>
<g
   id="g20">
</g>
<g
   id="g22">
</g>
<g
   id="g24">
</g>
<g
   id="g26">
</g>
<g
   id="g28">
</g>
<g
   id="g30">
</g>
<g
   id="g32">
</g>
<g
   id="g34">
</g>
<g
   id="g36">
</g>
<g
   id="g38">
</g>
</svg>