<?xml version="1.0" encoding="UTF-8" standalone="no"?>
<!-- Generator: Adobe Illustrator 18.0.0, SVG Export Plug-In . SVG Version: 6.00 Build 0)  -->

<svg
   version="1.1"
   id="Capa_1"
   x="0px"
   y="0px"
   viewBox="0 0 60 60"
   style="enable-background:new 0 0 60 60;"
   xml:space="preserve"
   sodipodi:docname="video.svg"
   inkscape:version="1.2.2 (b0a8486541, 2022-12-01)"
   xmlns:inkscape="http://www.inkscape.org/namespaces/inkscape"
   xmlns:sodipodi="http://sodipodi.sourceforge.net/DTD/sodipodi-0.dtd"
   xmlns="http://www.w3.org/2000/svg"
   xmlns:svg="http://www.w3.org/2000/svg"><defs
   id="defs101" /><sodipodi:namedview
   id="namedview99"
   pagecolor="#ffffff"
   bordercolor="#000000"
   borderopacity="0.25"
   inkscape:showpageshadow="2"
   inkscape:pageopacity="0.0"
   inkscape:pagecheckerboard="0"
   inkscape:deskcolor="#d1d1d1"
   showgrid="false"
   inkscape:zoom="6.8391318"
   inkscape:cx="29.974565"
   inkscape:cy="29.974565"
   inkscape:window-width="1366"
   inkscape:window-height="667"
   inkscape:window-x="0"
   inkscape:window-y="0"
   inkscape:window-maximized="1"
   inkscape:current-layer="g58" />
<g
   id="g66"
   transform="translate(1.2720461,3.5652779)">
	<g
   id="g58">
		<g
   id="g6">
			<rect
   x="1"
   y="4.5"
   style="fill:#8697cb"
   width="56"
   height="44"
   id="rect2" />
			<path
   style="fill:#535d73"
   d="M 58,49.5 H 0 V 3.5 H 58 Z M 2,47.5 H 56 V 5.5 H 2 Z"
   id="path4" />
		</g>
		<polygon
   style="fill:#00ff00"
   points="36,26.5 25,33.5 25,26.454 25,19.5 "
   id="polygon8" />
		<g
   id="g14">
			<rect
   x="1"
   y="4.5"
   style="fill:#687492"
   width="10"
   height="11"
   id="rect10" />
			<path
   style="fill:#535d73"
   d="M 12,16.5 H 0 v -13 h 12 z m -10,-2 h 8 v -9 H 2 Z"
   id="path12" />
		</g>
		<g
   id="g20">
			<rect
   x="1"
   y="15.5"
   style="fill:#687492"
   width="10"
   height="11"
   id="rect16" />
			<path
   style="fill:#535d73"
   d="M 12,27.5 H 0 v -13 h 12 z m -10,-2 h 8 v -9 H 2 Z"
   id="path18" />
		</g>
		<g
   id="g26">
			<rect
   x="1"
   y="26.5"
   style="fill:#687492"
   width="10"
   height="11"
   id="rect22" />
			<path
   style="fill:#535d73"
   d="M 12,38.5 H 0 v -13 h 12 z m -10,-2 h 8 v -9 H 2 Z"
   id="path24" />
		</g>
		<g
   id="g32">
			<rect
   x="1"
   y="37.5"
   style="fill:#687492"
   width="10"
   height="11"
   id="rect28" />
			<path
   style="fill:#535d73"
   d="M 12,49.5 H 0 v -13 h 12 z m -10,-2 h 8 v -9 H 2 Z"
   id="path30" />
		</g>
		<g
   id="g38">
			<rect
   x="47"
   y="4.5"
   style="fill:#687492"
   width="10"
   height="11"
   id="rect34" />
			<path
   style="fill:#535d73"
   d="M 58,16.5 H 46 v -13 h 12 z m -10,-2 h 8 v -9 h -8 z"
   id="path36" />
		</g>
		<g
   id="g44">
			<rect
   x="47"
   y="15.5"
   style="fill:#687492"
   width="10"
   height="11"
   id="rect40" />
			<path
   style="fill:#535d73"
   d="M 58,27.5 H 46 v -13 h 12 z m -10,-2 h 8 v -9 h -8 z"
   id="path42" />
		</g>
		<g
   id="g50">
			<rect
   x="47"
   y="26.5"
   style="fill:#687492"
   width="10"
   height="11"
   id="rect46" />
			<path
   style="fill:#535d73"
   d="M 58,38.5 H 46 v -13 h 12 z m -10,-2 h 8 v -9 h -8 z"
   id="path48" />
		</g>
		<g
   id="g56">
			<rect
   x="47"
   y="37.5"
   style="fill:#687492"
   width="10"
   height="11"
   id="rect52" />
			<path
   style="fill:#535d73"
   d="M 58,49.5 H 46 v -13 h 12 z m -10,-2 h 8 v -9 h -8 z"
   id="path54" />
		</g>
	</g>
	
</g>
<g
   id="g68">
</g>
<g
   id="g70">
</g>
<g
   id="g72">
</g>
<g
   id="g74">
</g>
<g
   id="g76">
</g>
<g
   id="g78">
</g>
<g
   id="g80">
</g>
<g
   id="g82">
</g>
<g
   id="g84">
</g>
<g
   id="g86">
</g>
<g
   id="g88">
</g>
<g
   id="g90">
</g>
<g
   id="g92">
</g>
<g
   id="g94">
</g>
<g
   id="g96">
</g>
</svg>
