<?xml version="1.0" encoding="UTF-8" standalone="no"?>
<!-- Generator: Adobe Illustrator 19.0.0, SVG Export Plug-In . SVG Version: 6.00 Build 0)  -->

<svg
   xmlns:dc="http://purl.org/dc/elements/1.1/"
   xmlns:cc="http://creativecommons.org/ns#"
   xmlns:rdf="http://www.w3.org/1999/02/22-rdf-syntax-ns#"
   xmlns:svg="http://www.w3.org/2000/svg"
   xmlns="http://www.w3.org/2000/svg"
   xmlns:sodipodi="http://sodipodi.sourceforge.net/DTD/sodipodi-0.dtd"
   xmlns:inkscape="http://www.inkscape.org/namespaces/inkscape"
   version="1.1"
   id="Layer_1"
   x="0px"
   y="0px"
   viewBox="0 0 489.701 489.701"
   style="enable-background:new 0 0 489.701 489.701;"
   xml:space="preserve"
   sodipodi:docname="vnc.svg"
   inkscape:version="0.92.4 (5da689c313, 2019-01-14)"><metadata
   id="metadata49"><rdf:RDF><cc:Work
       rdf:about=""><dc:format>image/svg+xml</dc:format><dc:type
         rdf:resource="http://purl.org/dc/dcmitype/StillImage" /><dc:title></dc:title></cc:Work></rdf:RDF></metadata><defs
   id="defs47" /><sodipodi:namedview
   pagecolor="#ffffff"
   bordercolor="#666666"
   borderopacity="1"
   objecttolerance="10"
   gridtolerance="10"
   guidetolerance="10"
   inkscape:pageopacity="0"
   inkscape:pageshadow="2"
   inkscape:window-width="1024"
   inkscape:window-height="710"
   id="namedview45"
   showgrid="false"
   inkscape:zoom="0.68154733"
   inkscape:cx="320.59788"
   inkscape:cy="286.33845"
   inkscape:window-x="0"
   inkscape:window-y="0"
   inkscape:window-maximized="1"
   inkscape:current-layer="g12" />
<g
   id="g12">
	
<path
   inkscape:connector-curvature="0"
   style="fill:#3e9ade;fill-rule:evenodd;stroke:none;stroke-width:4.9402442px;stroke-linecap:butt;stroke-linejoin:miter;stroke-opacity:1"
   d="M 137.88476,360.90194 H 72.285217 V 193.48149 c 0,0 -1.093326,-126.960499 101.679293,-126.960499 102.7726,0 100.58595,126.960499 100.58595,126.960499 v 167.42045 h -61.22624 v -48.51215 -118.9083 c 0,0 -4.3733,-51.62131 -38.26639,-51.62131 -33.89309,0 -37.17307,51.62131 -37.17307,51.62131 z"
   id="path2303"
   sodipodi:nodetypes="cccscccccscc" /><path
   inkscape:connector-curvature="0"
   style="fill:#66cc33;fill-rule:evenodd;stroke:none;stroke-width:4.9402442px;stroke-linecap:butt;stroke-linejoin:miter;stroke-opacity:1"
   d="m 478.45571,278.42382 v 80.38732 H 373.99386 c 0,0 -88.49405,4.51314 -88.49405,-141.51945 0,-146.032532 88.49405,-145.885095 88.49405,-145.885095 h 104.46185 l -0.77313,84.038525 h -30.2691 -73.41962 c 0,0 -32.20903,9.17376 -32.20903,57.33342 0,48.15972 32.20903,65.64528 32.20903,65.64528 z"
   id="path3277"
   sodipodi:nodetypes="cccscccccscc" /><path
   inkscape:connector-curvature="0"
   style="display:inline;fill:#ff0000;fill-opacity:1;fill-rule:evenodd;stroke:none;stroke-width:4.9402442px;stroke-linecap:butt;stroke-linejoin:miter;stroke-opacity:1"
   d="m 11.05898,24.665876 h 166.1855 v 18.137211 h -31.70644 c 0,0 -16.39988,4.185519 -8.74661,30.693756 7.65328,26.508237 85.2794,263.687197 85.2794,263.687197 l 4.35368,-1.48864 84.2057,-238.480667 c 0,0 12.68053,-54.425873 -4.37331,-54.411646 -38.18785,0.03345 0,0 -37.17306,0 -5.46664,0 -3.77303,-17.968619 -3.77303,-17.968619 h 118.57222 v 17.968619 c 0,0 -24.05317,-2.790333 -40.45305,33.484089 C 322.66112,122.22517 196.92434,482.28175 196.92434,482.28175 H 184.13663 L 44.952075,67.916164 C 36.20547,40.012754 11.835853,42.803087 11.835853,42.803087 Z"
   id="path2300"
   sodipodi:nodetypes="ccccscccsscccsccccc" /><path
   inkscape:connector-curvature="0"
   style="fill:#3e9ade;fill-rule:evenodd;stroke:none;stroke-width:4.9402442px;stroke-linecap:butt;stroke-linejoin:miter;stroke-opacity:1"
   d="m 180.60532,66.520991 c -110.671366,0 -108.316649,126.960499 -108.316649,126.960499 v 167.42045 h 65.931869 v -48.51215 -118.9083 c 0,0 4.70944,-51.62131 41.20744,-51.62131 m 0,0 c -2.02567,3.0619 0.89439,-2.69826 1.17734,-75.339189"
   id="path3275"
   sodipodi:nodetypes="ccccccccc" /><rect
   style="fill:#3e9ade;fill-opacity:1;stroke:none;stroke-width:2.4701221;stroke-linecap:square;stroke-linejoin:bevel;stroke-miterlimit:22.80000114;stroke-dasharray:none;stroke-opacity:1"
   id="rect3282"
   width="231.78503"
   height="59.992325"
   x="247.21733"
   y="399.96667" /></g>
<g
   id="g14">
</g>
<g
   id="g16">
</g>
<g
   id="g18">
</g>
<g
   id="g20">
</g>
<g
   id="g22">
</g>
<g
   id="g24">
</g>
<g
   id="g26">
</g>
<g
   id="g28">
</g>
<g
   id="g30">
</g>
<g
   id="g32">
</g>
<g
   id="g34">
</g>
<g
   id="g36">
</g>
<g
   id="g38">
</g>
<g
   id="g40">
</g>
<g
   id="g42">
</g>
</svg>